<?xml version="1.0" encoding="UTF-8"?>
<svg width="206px" height="38px" viewBox="0 0 206 38" version="1.1" xmlns="http://www.w3.org/2000/svg" xmlns:xlink="http://www.w3.org/1999/xlink">
    <!-- Generator: Sketch 45.2 (43514) - http://www.bohemiancoding.com/sketch -->
    <title>Group 26</title>
    <desc>Created with Sketch.</desc>
    <defs>
        <polygon id="path-1" points="2.31522339e-20 0.203325926 2.31522339e-20 22.8515365 29.0548978 22.8515365 29.0548978 0.203325926 0 0.203325926"></polygon>
        <polygon id="path-3" points="0.2669 22.8518519 8.62919167 22.8518519 8.62919167 0.120014815 0.2669 0.120014815"></polygon>
        <polygon id="path-5" points="42.8591184 37.2067334 -1.81848977e-13 37.2067334 -1.81848977e-13 0.130781668 42.8591184 0.130781668 42.8591184 37.2066869 -1.25782331e-05 37.2066869 -1.25782331e-05 0.130721644 42.859194 0.130721644 42.859194 37.2066869"></polygon>
    </defs>
    <g id="Page-1" stroke="none" stroke-width="1" fill="none" fill-rule="evenodd">
        <g id="提交订单-支付宝支付" transform="translate(-857.000000, -1333.000000)">
            <g id="Group-22" transform="translate(0.000000, 860.000000)">
                <g id="Group-26" transform="translate(857.000000, 473.000000)">
                    <g id="国资商城logo" opacity="0.8" transform="translate(0.000000, 7.000000)">
                        <g id="Group-3" transform="translate(0.000000, 0.598511)">
                            <mask id="mask-2" fill="white">
                                <use xlink:href="#path-1"></use>
                            </mask>
                            <g id="Clip-2"></g>
                            <path d="M6.3288625,6.79154815 L6.3288625,4.77265926 L22.9082375,4.77265926 L22.9082375,6.79154815 L16.0304875,6.79154815 L16.0304875,9.55836296 L22.2402792,9.55836296 L22.2402792,11.5772519 L16.0304875,11.5772519 L16.0304875,16.4702889 L23.1764458,16.4702889 L23.1764458,18.4874741 L6.06065417,18.4874741 L6.06065417,16.4702889 L12.6719042,16.4702889 L12.6719042,11.5772519 L6.99682083,11.5772519 L6.99682083,9.55836296 L12.6719042,9.55836296 L12.6719042,6.79154815 L6.3288625,6.79154815 Z M3.7151125,20.3888074 L22.9577792,20.3888074 C24.7446958,20.5540667 25.1598208,19.6766593 25.2794042,19.0565111 L25.2794042,2.83214074 L3.7151125,2.83214074 L3.7151125,20.3888074 Z M0.0439041667,22.8506593 L-0.0005125,0.244214815 L29.0104042,0.203325926 L29.0548208,19.2234741 C29.0684875,21.1265111 27.2610708,22.8966593 25.2230292,22.8506593 L0.0439041667,22.8506593 Z" id="Fill-1" fill="#FFFFFF" mask="url(#mask-2)"></path>
                        </g>
                        <path d="M21.5820583,16.4416667 L18.561725,16.4416667 L17.721225,13.3784074 C17.721225,13.3784074 20.919225,12.9098889 21.5820583,16.4416667" id="Fill-4" fill="#FFFFFF"></path>
                        <polygon id="Fill-6" fill="#FFFFFF" points="58.1470542 19.8487333 58.1470542 10.1955481 34.3294708 10.1955481 34.3294708 19.8487333 38.0570542 19.8555481 38.0570542 12.3541407 54.4177625 12.4256963 54.4177625 19.8776963"></polygon>
                        <path d="M38.8012042,5.0277037 L34.3219542,5.00896296 C33.9529542,6.866 33.4404542,7.85244444 31.7304125,9.63111111 L36.1874542,9.61918519 C37.3542458,8.40444444 38.2272042,7.6462963 38.8012042,5.0277037" id="Fill-8" fill="#FFFFFF"></path>
                        <path d="M38.8012042,3.66371852 C38.1776625,2.39786667 37.0792042,1.33816296 36.2745792,0.804903704 L32.2548708,0.801496296 C32.7793292,1.35008889 33.7735792,2.56312593 34.0503292,3.63475556 L38.8012042,3.66371852 Z" id="Fill-10" fill="#FFFFFF"></path>
                        <path d="M55.6674083,3.66320741 L55.6674083,5.62246667 C57.8147833,5.70935556 59.391575,3.83357778 59.5316583,2.67505926 L59.5316583,2.00039259 L48.5897833,1.99528148 C48.5897833,1.99528148 49.4986167,1.14172593 49.7189917,0.800985185 L43.8081583,0.800985185 C43.4049917,2.72617037 41.5890333,4.08913333 39.6364083,4.13683704 L39.6312833,5.50320741 C41.5087417,5.60372593 43.8577,5.06365185 46.3706583,3.66320741 L55.6674083,3.66320741 Z" id="Fill-12" fill="#FFFFFF"></path>
                        <path d="M47.1686208,5.88926667 L47.1686208,4.64556296 L51.9365792,4.64556296 L51.9365792,5.82111852 L55.4984542,7.05119259 C56.0775792,7.18408148 56.5610375,7.25222963 56.9488292,7.25222963 L58.6417875,7.25222963 L58.6417875,9.53348889 L55.4984542,9.53348889 C54.6596625,9.53348889 53.9524125,9.44319259 53.3715792,9.26600741 L49.6029958,7.5606 L45.7370375,9.26600741 C44.8999542,9.48748889 44.1909958,9.60163704 43.6118708,9.60163704 L40.5317458,9.60163704 L40.5317458,7.31867407 L42.2588708,7.31867407 C42.8379958,7.31867407 43.3846625,7.23008148 43.9022875,7.05119259 L47.1686208,5.88926667 Z" id="Fill-14" fill="#FFFFFF"></path>
                        <path d="M54.2896375,20.5075556 C53.3534708,20.5382222 53.2970958,20.3968148 52.6376792,20.1753333 L49.0860542,17.2756296 L49.0860542,13.8988889 L43.2503875,13.8988889 L43.2503875,17.3863704 L39.4185958,20.1753333 C38.8292208,20.4717778 38.1117208,20.4973333 37.4505958,20.4973333 L33.1285125,20.4973333 L33.1285125,23.4123704 L38.9573458,23.4123704 C39.6184708,23.4123704 40.5478042,23.4532593 41.5113042,22.9353333 L46.1767625,19.5943704 L50.8541792,22.9182963 C51.5153042,23.2113333 51.4401375,23.259037 52.5215125,23.4123704 L56.7291375,23.4055556 C59.2318458,23.0545926 59.5820542,20.5143704 59.5820542,20.5143704 L54.2896375,20.5075556 Z" id="Fill-16" fill="#FFFFFF"></path>
                        <path d="M81.2413292,6.6193037 L71.6934542,6.6193037 L70.4446625,4.45048889 L82.6302042,4.45048889 L81.2413292,6.6193037 Z M90.7430792,4.45048889 L90.7430792,2.11471111 L78.9470375,2.11471111 L78.9419125,1.6496 L74.0219125,0.865896296 L74.0219125,2.11471111 L62.2275792,2.11471111 L62.2275792,4.45048889 L66.5838292,4.45048889 L67.7659958,6.6193037 L62.8254958,6.6193037 L62.8254958,23.4501926 C62.8254958,23.4501926 66.5752875,23.4280444 66.5752875,20.112637 L66.5752875,8.93974815 L71.7139542,8.93293333 L71.1536208,10.4594519 C71.0049958,10.9824889 70.7145792,11.2448593 70.2789542,11.2448593 L68.4202875,11.2448593 L68.4202875,13.5874519 L71.1536208,13.5874519 C72.4468292,13.5874519 73.3197875,13.3778963 73.7759125,12.9621926 C74.2320375,12.5447852 74.5651625,11.9961926 74.7769958,11.3181185 L75.4449542,8.93293333 L77.4471208,8.93293333 L78.0997042,11.5515259 C78.2261208,12.0421926 78.4892042,12.4783407 78.8855375,12.8633778 C79.2835792,13.2484148 80.2761208,13.4392296 81.8665792,13.4392296 L84.7109542,13.4392296 L84.7109542,11.0608593 L83.1375792,11.0608593 C82.6182458,11.0608593 82.2731625,11.004637 82.1040375,10.8938963 C81.9349125,10.7848593 81.7914125,10.5327111 81.6752458,10.1408593 L81.3728708,8.93293333 L86.4244125,8.93974815 L86.4312458,23.4501926 L86.4278292,14.9350815 L86.4312458,23.4501926 C86.4312458,23.4501926 90.1929958,23.436563 90.1929958,20.1296741 C90.1929958,16.8210815 90.1776208,6.6193037 90.1776208,6.6193037 L84.7570792,6.6193037 L86.1254542,4.45048889 L90.7430792,4.45048889 Z" id="Fill-18" fill="#FFFFFF"></path>
                        <path d="M72.7589417,16.9180222 L80.1491917,16.9180222 L80.1491917,19.6456519 C80.1491917,19.8006889 80.0671917,19.9369852 79.9031917,20.0511333 C79.7391917,20.1652815 79.5239417,20.2232074 79.25915,20.2232074 L72.7589417,20.2232074 L72.7589417,16.9180222 Z M69.0723583,22.5419481 L81.4458167,22.5419481 C83.2241917,22.5419481 83.948525,21.9252074 83.948525,20.1993556 L83.948525,14.5805407 L69.0723583,14.5805407 L69.0723583,22.5419481 Z" id="Fill-20" fill="#FFFFFF"></path>
                        <g id="Group-24" transform="translate(93.250000, 0.598511)">
                            <mask id="mask-4" fill="white">
                                <use xlink:href="#path-3"></use>
                            </mask>
                            <g id="Clip-23"></g>
                            <polygon id="Fill-22" fill="#FFFFFF" mask="url(#mask-4)" points="6.41519167 3.85623704 8.56256667 3.85623704 8.56256667 1.51705185 6.41519167 1.51705185 6.42373333 1.09453333 2.66710833 0.120014815 2.65856667 1.51705185 0.2669 1.51705185 0.2669 3.85623704 2.65856667 3.85623704 2.68419167 19.8829778 0.292525 19.8829778 0.292525 22.8525333 8.62919167 22.8525333 8.62919167 19.8829778 6.44081667 19.8829778"></polygon>
                        </g>
                        <path d="M103.165908,20.3002148 C103.176158,20.2099185 103.177867,20.1111037 103.165908,19.9986593 L103.165908,20.3002148 Z" id="Fill-25" fill="#FFFFFF"></path>
                        <path d="M103.165908,20.3002148 L103.165908,19.9986593 C103.177867,20.1111037 103.176158,20.2099185 103.165908,20.3002148 L103.165908,20.3002148 Z M118.352992,0.898437037 L118.349575,2.11658519 L117.194742,2.11658519 L117.194742,1.67873333 L113.1682,0.704214815 L113.163075,2.11658519 L103.159075,2.11658519 L103.165908,23.3873259 C103.165908,23.3873259 106.927658,23.4060667 106.931075,20.1094 L106.927658,9.6231037 L108.284075,9.6231037 L108.277242,15.8058444 L108.272117,23.4060667 C108.272117,23.4060667 112.018492,23.4060667 112.015075,20.1145111 L112.032158,7.26858519 L106.931075,7.26688148 L106.927658,4.45406667 L113.163075,4.45406667 L113.163075,20.1247333 C113.163075,22.1453259 113.9677,23.4060667 116.323492,23.4060667 L119.444617,23.4060667 C121.646658,23.4060667 121.800408,20.9697704 121.800408,20.9697704 L117.724325,20.9697704 C117.146908,20.9936222 117.194742,20.0191037 117.194742,19.0752519 L117.194742,18.8537704 L119.757242,18.8537704 C121.935367,18.8145852 121.844825,17.550437 121.841408,15.7257704 L121.836283,7.24302963 L118.113825,7.26858519 L118.120658,15.5230296 C118.120658,15.9932519 117.917367,16.4941407 117.437325,16.5162889 L117.194742,16.5162889 L117.189617,4.45406667 L122.061783,4.45406667 L122.061783,2.11658519 L118.352992,0.898437037 Z" id="Fill-27" fill="#FFFFFF"></path>
                    </g>
                    <g id="资" transform="translate(163.000000, 0.000000)">
                        <g id="Group-3" transform="translate(0.000000, 0.055252)">
                            <mask id="mask-6" fill="white">
                                <use xlink:href="#path-5"></use>
                            </mask>
                            <g id="Clip-2"></g>
                            <path d="M22.7477355,1.30550986 C22.6926654,1.43145465 22.6502311,1.48689269 22.6506083,1.54214468 C22.6507969,1.57804918 22.7324592,1.64967214 22.7441522,1.64353303 C22.7992224,1.61413971 22.8714548,1.56949163 22.8818276,1.51926254 C22.8905031,1.4764748 22.8226083,1.41880436 22.7477355,1.30550986 L22.7477355,1.30550986 Z M20.2782531,36.377879 C20.304468,36.4139695 20.3304943,36.449874 20.3568978,36.4859645 C20.8544154,36.3974125 20.8544154,36.3974125 20.8415908,36.0439485 C20.7314504,36.1088743 20.6290425,36.1691492 20.5264461,36.2296101 C20.4436522,36.278723 20.3610469,36.328394 20.2782531,36.377879 L20.2782531,36.377879 Z M31.3230294,1.4969385 C31.3656522,1.76780352 31.5423671,1.74975826 31.7247399,1.69599453 C31.7596303,1.68557664 31.8033846,1.60651233 31.7954636,1.56911957 C31.7543496,1.37192388 31.5949855,1.39945686 31.4525952,1.41861833 C31.4078978,1.42457141 31.3681039,1.46828932 31.3230294,1.4969385 L31.3230294,1.4969385 Z M20.5635996,32.7468739 C20.8512092,32.7083649 21.131275,32.6707861 21.4217136,32.631533 C21.4390645,32.504286 21.4613189,32.4168501 21.4592443,32.3301584 C21.4569811,32.244583 21.4298232,32.1597516 21.4147355,32.0812454 C20.8183934,32.0518521 20.5651083,32.2403042 20.5635996,32.7468739 L20.5635996,32.7468739 Z M3.18443289,13.9985869 C3.44186711,14.5520371 3.9044943,14.9423357 4.31544605,15.3726316 C4.974025,16.0624444 5.8123364,16.4131179 6.74324868,16.5416672 C7.60739781,16.6611008 7.82635833,16.5500387 8.42647237,15.8232052 C8.57904693,15.883294 8.74689781,15.9418946 8.9083364,16.0150059 C9.31928816,16.2006675 9.74796798,16.2443854 10.1981478,16.2458736 C12.3930338,16.253129 13.1706171,13.523829 12.2481917,12.1977811 C12.0844899,11.9626345 11.8594943,11.7691595 11.6405338,11.5321526 C12.1621917,10.7485788 11.9111697,9.95049436 11.5330338,9.18812839 C10.8980294,7.90710056 9.77323991,7.26286597 8.3927136,7.05488033 C7.83710833,6.97116518 7.25113904,6.98474564 6.69119605,7.05208983 C5.78253816,7.16147762 5.05663026,7.60405172 4.66302939,8.45720211 C4.19002939,9.48224762 4.67792851,11.0090259 5.64920044,11.5911253 C6.09164781,11.8564093 6.57841535,11.9537049 7.08177939,11.849526 C7.30583202,11.8032036 7.54233202,11.6958622 7.715275,11.5494537 C8.17582763,11.158411 8.11000746,10.4248802 7.60739781,10.0905777 C7.48707325,10.0103972 7.35052939,9.95440106 7.21417412,9.88370827 C7.62757763,9.73004446 7.99609518,9.79776072 8.34631886,10.0849967 C8.84628816,10.495387 9.04356009,11.224825 8.82950307,11.871478 C8.62544167,12.4872494 8.05173114,12.915871 7.3767443,12.9396833 C6.14615219,12.9828431 5.20316974,12.4251142 4.50988904,11.4804352 C3.92920044,10.689048 3.43583202,9.83571159 2.90512149,9.00897797 C2.80969167,8.86033707 2.80007325,8.61998157 2.51397237,8.68397715 C2.48266535,8.6908604 2.42042851,8.59412289 2.3830864,8.53868486 C2.05398553,8.05164872 1.73167412,7.55996174 1.39766974,7.07627421 C1.27508202,6.89861205 1.15438026,6.70011413 0.983511842,6.57844811 C0.565393421,6.28023614 0.512963596,5.87282241 0.55256886,5.42429524 C0.576520614,5.15491849 0.627630263,4.91177249 0.307582018,4.72741313 C0.193103947,4.66137118 0.171603947,4.36204301 0.183485526,4.17396297 C0.212340789,3.7237615 0.265902193,3.29048909 0.142182895,2.83079989 C0.0656127193,2.54709855 0.243459211,2.20591281 0.232709211,1.89300418 C0.222147807,1.57507264 0.0431697368,1.26569866 0.202345175,0.936791133 C0.24025307,0.858843026 0.235538158,0.76061725 0.261941667,0.602860701 C0.886573246,0.525098628 1.53704254,0.495705309 2.15601623,0.570304809 C2.78913465,0.646578612 3.40942851,0.461103047 4.03745482,0.555422116 C3.88544605,1.30309142 3.88544605,1.30309142 4.05405132,1.89914329 C2.96641535,2.96027933 2.75782763,3.66981173 3.27609079,4.54528617 C3.80378377,5.4367595 4.69509079,5.75934188 5.78442412,5.4533165 C6.50222237,6.26088864 7.41295482,6.33623228 8.35329693,6.00695269 C9.62575746,5.56121602 10.336389,4.58770184 10.5711917,3.30760418 C10.6986829,2.61332654 10.4188057,2.01764674 9.78248114,1.63683582 C9.12182763,1.24151428 8.23806447,1.25695507 7.6939636,1.66250847 C7.42219605,1.86528516 7.22756447,2.12256972 7.14477061,2.45556999 C7.06857763,2.76140934 7.11270921,3.0391576 7.36467412,3.24844548 C7.59268728,3.43801378 7.85276184,3.49289371 8.13395921,3.35095003 C8.1937443,3.32062654 8.25748991,3.29811647 8.38781009,3.2430505 C8.31105132,3.56321444 8.12773553,3.69492628 7.91292412,3.78626881 C7.46463026,3.97676728 7.04273991,3.89974934 6.67290219,3.60228151 C6.29816096,3.30072094 6.16520044,2.90037649 6.28043289,2.43399008 C6.37548553,2.0505747 6.59406886,1.73543366 6.90487588,1.49377593 C7.40314781,1.10663987 7.951775,0.819403889 8.59752939,0.758012779 C9.03695921,0.716155204 9.47770921,0.686203783 9.91600746,0.635416592 C10.283582,0.593000916 10.6543627,0.659414935 11.0196741,0.461475114 C11.2329768,0.345576139 11.5518934,0.42929129 11.8206434,0.39989797 C12.1472925,0.363807439 12.4699811,0.293300679 12.7964417,0.255349811 C13.1755206,0.211073798 13.5564855,0.166611752 13.9370732,0.161588843 C14.0894592,0.159542473 14.2433539,0.262791158 14.4064899,0.32176383 C14.9315425,0.0322954446 15.1823759,0.0624328986 15.5256215,0.476357807 C16.1909899,0.136846365 16.9070908,0.28269676 17.6109329,0.29181241 C17.7186215,0.293300679 17.8442268,0.358226429 17.9302268,0.321949864 C18.2928978,0.169216223 18.614832,0.261302888 18.828889,0.402502442 C19.122911,0.326228638 19.3201829,0.240653151 19.5217925,0.229677165 C19.9808364,0.204748654 20.4419548,0.22335202 20.9021303,0.210887765 C21.2734768,0.200841947 21.6127618,0.265581663 21.968832,0.403060543 C22.4980338,0.607325509 23.0711785,0.649369117 23.6496039,0.580164593 C24.195025,0.514866776 24.7444066,0.462033215 25.2930338,0.450685161 C26.3046654,0.429663357 27.3172399,0.442127613 28.3292487,0.442871747 C29.0213978,0.443429848 29.206411,0.482496918 29.4689373,0.642857939 C29.8717794,0.590396445 30.2082355,0.515238844 30.5460118,0.507797497 C32.3305118,0.468730427 34.1152004,0.446406387 35.8997004,0.419245472 C36.0988583,0.416082899 36.2983934,0.418687371 36.4735996,0.418687371 C36.7397092,0.78647593 36.7104768,1.15742706 36.6646478,1.51163516 C36.6146697,1.89821312 36.3668539,2.10285016 35.943832,2.13577812 C35.3210864,2.18414687 34.6960776,2.20851728 34.0720118,2.23772456 C33.3083846,2.273257 32.5449461,2.32181178 31.7809417,2.3312995 C30.8613452,2.34246152 29.9415601,2.31623077 29.021775,2.31046373 C28.1802575,2.30525479 27.3389285,2.30581289 26.4977882,2.30358048 C26.3416303,2.30320842 26.2486522,2.33799671 26.1089022,2.46691804 C25.9636829,2.60104832 25.528968,2.58523545 25.3273583,2.46356944 C25.0889724,2.31957938 24.8681259,2.26916425 24.6178583,2.26507151 C23.9189197,2.25316536 23.2196039,2.2578162 22.5208539,2.24721228 C21.2578232,2.22842288 19.9955469,2.23028322 18.7357224,2.33818274 C18.0762004,2.39473698 17.4130952,2.41743309 16.756025,2.49259069 C15.6608452,2.61723325 14.7734987,3.10854816 14.1530162,4.02736844 C14.1226522,4.07220255 14.0922882,4.12205958 14.081161,4.17340487 C13.9138759,4.953258 13.6741697,5.73162286 13.8439066,6.53733467 C13.9002969,6.80410695 14.0345776,7.0757161 14.2007311,7.2950498 C14.5882969,7.80627031 15.0675206,8.22819467 15.6966785,8.43580824 C16.1949504,8.600262 16.6702136,8.84415214 17.2371346,8.76639007 C17.4506259,8.73718278 17.6856171,8.89996224 17.9166478,8.94628462 C18.9107399,9.14478255 19.9202969,9.13975964 20.9281566,9.15092166 C21.4779154,9.15687473 22.0280513,9.15203786 22.562911,9.15203786 C22.7066215,9.69972097 22.6555118,9.75478694 22.2141961,9.9004513 C21.5705162,10.1129017 20.9096741,10.0942984 20.249775,10.1013677 C19.3860031,10.1106693 18.5214768,10.0879732 17.658082,10.1110414 C17.1639592,10.1240638 16.6677618,10.1778275 16.1792969,10.2541013 C15.4524461,10.3675818 14.854218,10.7625313 14.282582,11.1911529 C14.1945075,11.2571948 14.1541478,11.3896508 14.1022838,11.4962481 C14.0639987,11.5753124 14.0623013,11.6774449 14.0104373,11.7434868 C13.5021697,12.3934885 13.6571961,13.0568845 13.9336785,13.739442 C14.0385382,13.9982149 14.0142092,14.3204252 14.1569768,14.5477583 C14.2950294,14.7674641 14.6533627,14.8595508 14.7734987,15.081861 C15.1944461,15.8619002 16.0055996,15.844599 16.6941654,16.0834663 C17.2548627,15.9069203 17.789911,16.1625306 18.3389154,16.1785295 C18.9080996,16.1949004 19.477661,16.2164803 20.0468452,16.2170384 C20.282025,16.2174105 20.5173934,16.1677395 20.7529504,16.1431831 C20.8427224,16.1336953 20.938718,16.1080227 21.022832,16.1275562 C21.8002268,16.3078229 22.5821478,16.2149921 23.3650118,16.1895054 C23.9119417,16.1716462 24.4609461,16.1935982 25.0086303,16.2122015 C25.7345382,16.2371301 26.1249329,15.8786432 26.138889,15.1596231 C26.1409636,15.0515375 26.1728364,14.9427078 26.1658583,14.8359245 C26.1239899,14.1915039 25.7875338,13.8177622 25.129332,13.7861365 C24.3628759,13.7491158 23.5934022,13.7824158 22.8252487,13.7718119 C22.3311259,13.7649287 21.8371917,13.7163739 21.3430689,13.7182342 C20.8889285,13.7200945 20.4212092,13.6192643 19.9853627,13.8419466 C19.9404768,13.8648287 19.8705075,13.8797114 19.8284504,13.8616662 C19.1215908,13.5578732 18.3726741,13.7539527 17.6478978,13.6754465 C17.3772618,13.6460531 17.1092662,13.5798252 16.8437224,13.5160156 C16.6426785,13.4674608 16.5232969,13.3324004 16.5417794,13.1199499 C16.5612048,12.8989419 16.6025075,12.6677021 16.8633364,12.6050087 C17.0939899,12.5497568 17.3342618,12.5162707 17.5715162,12.5077131 C17.9749241,12.4928304 18.380218,12.490598 18.7828715,12.5121779 C19.015411,12.5244562 19.2441785,12.5958931 19.4753978,12.6370065 C19.6185425,12.6626792 19.7633846,12.7034206 19.9061522,12.6987697 C20.9142004,12.6647256 21.9222487,12.6306814 22.9293539,12.5774758 C23.776718,12.5326417 24.452082,12.1027178 25.0601171,11.5650806 C25.2034504,11.4382056 25.3226434,11.2445445 25.3713013,11.0607433 C25.5185952,10.5043166 25.8326083,9.9910497 25.8203496,9.39295146 C25.8190294,9.3246771 25.8537311,9.25565861 25.8835294,9.14217808 L27.9279154,9.14217808 C28.0088232,9.47499231 28.0708715,9.8076205 28.171582,10.1283425 C28.3509373,10.6996519 28.6598583,11.1576668 29.2350776,11.4471352 C29.5590864,11.6102867 29.7904943,11.9308227 30.1807004,12.0217932 C31.3237838,12.2880074 32.4557399,12.6144965 33.6435206,12.6243563 C34.5046522,12.6316116 35.3655952,12.6271468 36.2267268,12.6304954 C36.4438013,12.6314255 36.685582,12.5932886 36.7404636,12.9021045 C36.7904417,13.1826433 36.6916171,13.4283938 36.3975952,13.5011329 C35.7471259,13.661866 35.1140075,13.8785952 34.4092224,13.8131114 C33.5901478,13.7368376 32.7601346,13.7608359 31.935025,13.7680912 C31.4218539,13.77237 30.9092487,13.8458533 30.3962662,13.8505041 C30.0960206,13.8532947 29.7961522,13.7645566 29.4943978,13.7485577 C29.2390382,13.7349772 28.9783978,13.7483717 28.7243583,13.7820438 C28.225332,13.8482717 27.9330075,14.1280664 27.8268276,14.6097075 C27.8074022,14.6980735 27.7983496,14.789044 27.7891083,14.8792703 C27.6872662,15.877899 28.1721478,16.4309771 29.1847224,16.3697721 C30.1301566,16.3126597 31.0699329,16.3827944 32.0123496,16.3773994 C32.1126829,16.3768413 32.2137706,16.3254961 32.3125952,16.2914519 C32.5455118,16.2116434 32.7691873,16.0527707 32.9968232,16.3347977 C33.0528364,16.4041883 33.2399241,16.3853989 33.3660952,16.3820503 C34.042968,16.3647492 34.7254987,16.3867011 35.3948276,16.3050323 C36.1878759,16.2084809 36.9971434,16.1003953 37.7149417,15.7253514 C38.0787443,15.535225 38.3854022,15.2360829 38.7095996,14.9761939 C38.8227575,14.8855955 38.9074373,14.761325 39.0117311,14.6591925 C39.5812925,14.1007194 39.8230732,13.4382535 39.9296303,12.6392389 C40.0520294,11.7215349 40.0022399,10.8296895 39.8826697,9.93616977 C39.8242048,9.49861858 39.6054329,9.08022886 39.4400338,8.66035088 C39.4049548,8.57086868 39.297832,8.49310661 39.2052311,8.44436579 C38.9683539,8.3195372 38.8071039,8.17387284 38.7433583,7.88477652 C38.7090338,7.72888031 38.4998803,7.58116958 38.3359899,7.48666447 C37.052025,6.74699461 35.6426434,6.43780666 34.1740425,6.38106639 C33.2403013,6.34516189 32.3027882,6.39557702 31.3699899,6.34869653 C30.0722575,6.28358475 28.7777311,6.43780666 27.4754724,6.3092574 C26.4551654,6.20861318 25.4163759,6.29846744 24.3868276,6.27093446 C23.7936917,6.25549367 23.1947092,6.25233109 22.612889,6.09457455 C22.5116127,6.0672276 22.3535689,6.03839238 22.2969899,6.09029577 C21.9610996,6.39762339 21.5605206,6.25493557 21.1912487,6.25865624 C20.131525,6.26926016 19.0744417,6.1998696 18.0183013,6.10741087 C17.4357268,6.05643764 17.315968,5.94723588 17.2922048,5.38504214 C17.2825864,5.16142967 17.3685864,5.00218485 17.560389,4.88777415 C17.9026917,4.68369522 18.2796961,4.60314264 18.6708452,4.62509461 C21.8166346,4.80201263 24.9641215,4.67513767 28.1104768,4.70341478 C28.8884373,4.71029803 29.6711127,4.69727567 30.4554855,4.75457404 C31.5868759,4.83735902 32.7320338,4.72759916 33.8715338,4.71643714 C34.7138057,4.70843769 35.5564548,4.74062152 36.3983496,4.72294832 C36.6001478,4.71885558 36.8792706,4.84666071 37.0133627,4.52965934 C37.0410864,4.46436152 37.2072399,4.44613022 37.3132311,4.42492239 C38.6605645,4.1542434 39.1925952,3.57660886 39.3461127,1.91495615 C39.3872268,1.47014966 39.3523364,1.01864595 39.3523364,0.512448339 C39.888139,0.512448339 40.4365776,0.506309228 40.9842618,0.518215382 C41.0798803,0.520447786 41.2462224,0.586675772 41.2567838,0.645090343 C41.3148715,0.964882216 41.597389,0.981625246 41.8088057,1.10943038 C42.0260689,1.24058411 42.2091961,1.42698984 42.4885075,1.65618332 C42.4969943,1.68799508 42.5301873,1.82807843 42.5729987,1.96499921 C42.650889,2.21372622 42.5952531,2.4086895 42.4094855,2.60737346 C42.1103715,2.92735137 42.1047136,3.05366823 42.4224987,3.32899805 C42.6808759,3.55261052 42.7123715,3.81231352 42.5948759,4.0608545 C42.3549811,4.56909848 42.3921346,5.06115753 42.4800206,5.59656242 C42.5582882,6.07318067 42.4919022,6.5739833 42.4796434,7.06399598 C42.4641785,7.68125569 42.4298539,8.2979573 42.4213671,8.91503097 C42.4175952,9.19036079 42.3165075,9.48466606 42.5931785,9.72520759 C42.6610732,9.78418026 42.6252399,10.0063045 42.5811083,10.1348537 C42.4125031,10.6274709 42.4456961,11.0715332 42.7319855,11.5302923 C42.9758408,11.920963 42.8598539,12.224942 42.4632355,12.4961791 C42.9049285,13.0566985 42.7457531,13.7046538 42.6454197,14.3059146 C42.5697925,14.7587205 42.2795425,15.1737616 42.1194241,15.6176379 C42.0837794,15.7167939 42.1518627,15.916408 42.2397487,15.9844963 C42.7738539,16.3974911 42.7800776,16.3891196 42.4513539,17.0246106 C42.4347575,17.0564223 42.4209899,17.0915827 42.4157092,17.1267431 C42.385911,17.3235667 42.3591303,17.5211344 42.3331039,17.7060519 C42.4645557,17.8383218 42.6523978,17.944361 42.6837048,18.0844444 C42.7091654,18.1995992 42.5356566,18.3495423 42.4753057,18.4944626 C42.4234417,18.6194772 42.3593189,18.7684902 42.3842136,18.8899701 C42.4309855,19.1165592 42.5135908,19.3446364 42.6278803,19.546483 C42.7457531,19.7548407 42.7446215,19.9194805 42.5762048,20.0841203 C42.2844461,20.3691238 42.2289987,20.6613827 42.5084987,20.9962433 C42.564889,21.0637735 42.5707355,21.2105541 42.5420689,21.3033849 C42.3229197,22.0194285 42.4360776,22.7451458 42.4619154,23.4678866 C42.4749285,23.8304662 42.4830382,24.1952783 42.5292443,24.5548813 C42.6261829,25.3118523 42.5969504,26.0457551 42.1686478,26.7508227 C42.5382969,26.9764816 42.5058583,27.3230623 42.5135908,27.6614575 C42.5501785,29.2769739 42.5977048,30.8919322 42.6250513,32.5074485 C42.6307092,32.8495644 42.6782355,33.261629 42.5124592,33.5204018 C42.2397487,33.9458608 42.1941083,34.2751404 42.5020864,34.6717642 C42.5528189,34.7374341 42.544332,34.9348158 42.4875645,34.9809522 C42.1620469,35.2458641 42.3331039,35.6302097 42.2310732,35.9674887 C42.1018846,35.9931613 41.966661,35.9937194 41.8604811,36.0485994 C41.7575075,36.101619 41.6075732,36.2136112 41.6107794,36.2941638 C41.6273759,36.687439 41.3150601,36.831429 41.0693189,36.9867672 C40.8867575,37.1022941 40.6297004,37.1331757 40.4028189,37.1441516 C39.7964811,37.1729869 39.1884461,37.1642433 38.5813539,37.1843349 C38.3118496,37.1930785 38.0998671,37.1489885 38.0612048,36.7190647 C37.6532706,37.2961411 37.1180338,37.2025662 36.6139154,37.1990316 C33.8164636,37.1796841 31.0190118,37.1363382 28.2217487,37.1335477 C22.9576434,37.1281527 17.6933496,37.1521511 12.4292443,37.1493606 C9.63216974,37.1476863 6.83490658,37.1257343 4.03820921,37.0890857 C3.34266535,37.0801561 2.64863026,36.9752331 1.953275,36.9222135 C1.70357325,36.903052 1.45123114,36.9155163 1.20171798,36.8952386 C1.11760395,36.8883553 0.982191667,36.8407307 0.965217982,36.7841765 C0.808117105,36.256771 0.423191667,35.7955936 0.455064474,35.1775897 C0.624424123,35.1628931 0.767757456,35.1366623 0.910713596,35.140383 C2.32688465,35.1755434 3.74286711,35.2179591 5.15903816,35.2529334 C5.71011711,35.2665138 6.26176184,35.2635373 6.81302939,35.272653 C7.01501623,35.2760016 7.21681447,35.2938608 7.41880132,35.3040926 C8.06078377,35.3360904 8.70314342,35.3645536 9.34512588,35.4004581 C9.67422675,35.4186894 10.0023846,35.4534777 10.3316741,35.4726391 C10.5325294,35.4845453 10.7348934,35.4923587 10.9353715,35.4811967 C11.5958364,35.4445481 12.2553583,35.3798083 12.9160118,35.3632513 C13.2932048,35.3541357 13.6266434,35.2371205 13.9804504,35.1344299 C15.0982618,34.8099872 15.7789066,33.9813933 16.4582311,33.1446138 C16.5676171,33.0095534 16.6319285,32.8259382 16.6754943,32.6546012 C16.7697925,32.2862545 16.8369329,31.9115827 16.9257618,31.4883561 C17.1228452,31.4732874 17.3182311,31.4457544 17.5138057,31.4451963 C18.3606039,31.4424058 19.2123057,31.504355 20.0526917,31.4344063 C20.9057136,31.3633415 21.7306346,31.4427779 22.5695118,31.5558863 C23.0357224,31.6183936 23.5224899,31.5339343 24.0000162,31.5130986 C24.2204855,31.5034248 24.4409548,31.4891002 24.6612355,31.4742175 C24.9109373,31.4574745 25.0376741,31.5934651 25.0806741,31.8146592 C25.1149987,31.9926934 25.1285776,32.1746343 25.151775,32.3543428 C25.2398496,33.0324355 25.5383978,33.609512 26.0708057,34.040738 C26.7303276,34.5748407 27.4469943,35.013136 28.3300031,35.0927584 C29.3184373,35.1818685 30.3051741,35.3100457 31.2956829,35.3550659 C33.8522969,35.471709 36.4109855,35.4158989 38.9683539,35.355624 C39.8081741,35.3359044 40.3798101,34.8998415 40.6419592,34.1155235 C40.6794899,34.0035313 40.6783583,33.8602854 40.6436566,33.7468048 C40.5484154,33.4359426 40.425639,33.1332658 40.307389,32.8099393 C39.6518276,32.6962727 39.0130513,32.7431532 38.3748408,32.7956147 C36.9811127,32.9105835 35.5898364,33.013088 34.1863013,32.9457438 C33.2165382,32.8990494 32.2411171,32.9544874 31.268525,32.9712305 C30.3711829,32.9864852 29.5160864,32.7891035 28.6828671,32.4836362 C28.159889,32.2920215 28.0774724,32.13966 28.1270732,31.4762639 C28.4131741,31.4762639 28.7041785,31.4846354 28.9946171,31.4744036 C29.4157531,31.4595209 29.8367004,31.4316158 30.2576478,31.4089197 C30.3300689,31.404827 30.4268189,31.3676203 30.471139,31.4001761 C30.8734154,31.6974579 31.3271785,31.5506774 31.7528408,31.5335623 C33.0202092,31.4816589 34.2966303,31.5251908 35.5472136,31.2600928 C35.9783452,31.1689363 36.4017443,31.0441077 36.8298583,30.9388126 C38.0774241,30.6320431 38.8636829,29.7537782 39.5643189,28.7769154 C39.6395689,28.6721785 39.6686127,28.5004694 39.6486215,28.3704318 C39.6003408,28.056407 39.6908671,27.7978202 39.8875732,27.5639759 C40.124639,27.2823209 40.1944197,26.9610408 40.1740513,26.5999494 C40.1485908,26.1469575 40.1444417,25.6922912 40.1527399,25.2385551 C40.1565118,25.044708 40.1761259,24.8324436 40.2600513,24.6631529 C40.3535952,24.4741427 40.3622706,24.3113633 40.2549592,24.1521184 C39.8551346,23.5599733 39.8689022,22.9218778 40.0425996,22.2744806 C40.1395382,21.9139474 40.0667399,21.6066198 39.8966259,21.2855257 C39.7544241,21.0168931 39.6776654,20.7153325 39.5639417,20.4314451 C39.5239592,20.3322892 39.469832,20.2346215 39.4042004,20.1501622 C39.1243232,19.790001 38.8450118,19.4289097 38.5506127,19.0802826 C38.3542838,18.8479265 38.1747399,18.579852 37.7794417,18.668218 C37.6926873,18.6875655 37.5502969,18.5714805 37.4680689,18.485719 C37.1304811,18.1337433 36.6950118,18.0109611 36.234082,17.938966 C34.5212487,17.6714496 32.7982311,17.5542484 31.064275,17.601873 C30.6740689,17.612663 30.6738803,17.607268 30.4302136,17.8984107 C30.3945689,17.9028755 30.354775,17.9194325 30.3238452,17.9092007 C29.4566785,17.6219647 28.5642399,17.5769445 27.656525,17.5871764 C26.1658583,17.6041054 24.6746259,17.58513 23.183582,17.5721077 C22.8165732,17.5691311 22.4486215,17.5004847 22.0833101,17.5162976 C21.5360031,17.5397378 20.9890732,17.5990825 20.4453496,17.667729 C20.1850864,17.7006569 19.9531127,17.7440028 19.7134066,17.5661546 C19.5974197,17.480021 19.4022224,17.4714634 19.2428583,17.4716495 C16.0216303,17.4770444 12.8004022,17.4820674 9.57898553,17.5036473 C8.71445921,17.5094143 7.84672675,17.5308082 6.98729254,17.6147094 C5.92209956,17.7187022 4.91273114,18.0801656 4.1572136,18.828579 C3.66856009,19.3124526 3.243275,19.9042257 3.16613904,20.6665917 C3.09862149,21.3311039 2.92643289,21.9851983 2.80082763,22.6441295 C2.78743728,22.7151944 2.76442851,22.7873755 2.76631447,22.8582543 C2.80403377,24.3089448 2.83270044,25.7600074 2.89135395,27.2095818 C2.90832763,27.6240648 3.01262149,28.0350131 3.07749868,28.4474498 C3.09164342,28.537118 3.07919605,28.6491103 3.12936272,28.7119897 C3.55879693,29.2516733 3.91109518,29.9107906 4.46141974,30.2821138 C5.07718728,30.6973409 5.79498553,31.0604787 6.58897675,31.1289391 C7.65190658,31.2202816 8.71427061,31.3350644 9.7794636,31.3804566 C10.9189636,31.4290114 12.0616697,31.4078035 13.2028671,31.4198957 C13.3835425,31.4219421 13.5638408,31.4398013 13.734332,31.4500332 C13.8810601,32.1971444 13.6339987,32.6828783 12.9327969,32.8331935 C12.2546039,32.9786718 11.5526478,33.0551316 10.8580469,33.0780138 C9.68158202,33.1170809 8.50209956,33.1120579 7.32506886,33.0835948 C6.49977061,33.0633171 5.67635833,32.9732768 4.85219167,32.9139321 C4.66944167,32.9009097 4.45745921,32.8209153 4.31016535,32.8854689 C3.92316535,33.0551316 3.60688904,32.9416511 3.26439781,32.7788716 C3.10767412,32.7044582 2.90719605,32.7020397 2.72614342,32.6986911 C2.08189781,32.6875291 1.4374636,32.6897615 0.793217982,32.6873431 C0.594437281,32.6865989 0.395656579,32.687157 0.164060088,32.687157 C0.134827632,32.493682 0.0969197368,32.3562032 0.0959767544,32.2185382 C0.082020614,30.0588734 0.0735337719,27.8992086 0.0624065789,25.7393577 C0.0525995614,23.7785628 0.0386434211,21.817582 0.0309109649,19.8566011 C0.0203495614,17.1879481 0.0148802632,14.5194812 0.00413026316,11.8508283 C0.00299868421,11.5576392 0.000546929824,11.2837976 0.228182895,11.0400935 C0.430358333,10.8229923 0.406783772,10.5822647 0.16179693,10.3746511 C0.0863583333,10.3106555 0.00941096491,10.2005236 0.00677061403,10.1095531 C-0.00793991228,9.59275162 -0.000396052632,9.07539199 0.0459986842,8.54594017 C0.440542544,8.94461032 0.728152193,9.40299728 0.945226754,9.88966135 C1.2328364,10.5348261 1.51648553,11.1710612 2.01513465,11.6938158 C2.09019605,11.7723221 2.07227939,11.932125 2.11320482,12.0489541 C2.16940658,12.2113615 2.24069605,12.36856 2.30576184,12.5281768 C2.10094605,12.8131804 2.35555132,13.037351 2.42985833,13.2719394 C2.55112588,13.6547967 2.79969605,13.9695657 3.18443289,14.275405 L3.18443289,13.9985869 Z" id="Fill-1" fill="#FFFFFF"></path>
                        </g>
                        <path d="M36.8261241,21.0732055 C36.9928434,21.557079 36.9928434,21.557079 36.8025496,21.9937 C36.6407338,21.9937 36.4589268,21.9946302 36.2773083,21.993514 C31.8041768,21.9672833 27.3310452,21.9404944 22.8579136,21.9151938 C22.5885978,21.9135195 22.299668,21.9719341 22.1851899,21.579031 C21.8664618,21.916124 21.5109575,21.91631 21.1381022,21.915938 C16.1495364,21.9081245 11.160782,21.9094268 6.17202763,21.9084966 L5.55361974,21.9084966 C5.54777325,21.5795891 5.528725,21.2802609 5.54136096,20.982049 C5.55286535,20.7137884 5.78219868,20.6135163 5.99455833,20.5720308 C6.51659342,20.4698983 7.04372061,20.3558596 7.57254518,20.3322334 C8.62001009,20.2851668 9.67030395,20.2801439 10.719089,20.291306 C11.0827031,20.2950266 11.4502776,20.3772535 11.8065364,20.4620849 C12.1137601,20.5351961 12.3883566,20.5204994 12.6444706,20.3366982 C13.0077075,20.076065 13.406589,20.0470437 13.8475276,20.0689957 C15.7033171,20.1616405 17.5600496,20.2460998 19.4175364,20.2829344 C20.2039838,20.2985613 20.9940145,20.2018238 21.7800846,20.1305729 C22.0790101,20.103598 22.3560583,20.0941103 22.6440452,20.2059165 C22.8435803,20.2834925 23.0700846,20.3119557 23.286782,20.3244199 C23.7090496,20.3487904 24.1335803,20.335954 24.556225,20.3590222 C24.9160671,20.3787418 25.2555408,20.3437674 25.5508829,20.1216432 C25.7492864,19.9724442 25.9446724,20.009837 26.1736285,20.0621125 C26.5991022,20.159222 27.0360803,20.2483322 27.470418,20.2591221 C29.9542338,20.3218155 32.4388039,20.3582781 34.9231855,20.4092513 C35.3645013,20.4183669 35.7841285,20.452039 36.1262425,20.827455 C36.2731592,20.9885601 36.5920759,20.9973037 36.8261241,21.0732055" id="Fill-4" fill="#FFFFFF"></path>
                        <path d="M5.38931447,25.5481895 C5.35895044,25.1725875 5.33613026,24.8873979 5.3182136,24.6678782 C5.50228377,24.4866814 5.62675746,24.3428774 5.77442851,24.2279086 C5.85081009,24.1683778 5.96717412,24.136566 6.06750746,24.1322873 C6.43489342,24.1164744 6.80322237,24.1123817 7.17136272,24.1131258 C9.01187588,24.1164744 10.8529548,24.1546113 12.6923364,24.1146141 C13.5887355,24.0952666 14.4830601,23.942719 15.3754987,23.8292384 C15.7826785,23.777149 16.1723189,23.7105489 16.5348013,23.987181 C16.627025,24.0578738 16.7769592,24.0807559 16.9006785,24.0815001 C18.703661,24.092104 20.5073978,24.130799 22.3088715,24.0841045 C23.1558583,24.0621526 23.9934154,23.9882972 24.8351215,24.1467979 C25.0825601,24.1933063 25.3481039,24.1609364 25.6044066,24.1464258 C29.1177706,23.9475558 32.6315118,24.0208531 36.1452531,24.1347057 C36.7150031,24.1533091 36.8979417,24.3436215 36.8953013,24.9050711 C36.8941697,25.1190098 36.8615425,25.3329485 36.8396654,25.5863264 C36.4085338,25.5863264 36.0024855,25.6378577 35.6164285,25.573304 C35.1392794,25.4938677 34.6723145,25.479171 34.1923364,25.4996347 C33.0352969,25.5493057 31.8771259,25.5920934 30.7191434,25.5963722 C29.8218013,25.5997208 28.9146522,25.6942259 28.030889,25.4356391 C27.9471522,25.4110827 27.8449329,25.4164777 27.7581785,25.4367553 C27.0854548,25.5935817 26.4059417,25.5734901 25.7283145,25.5037275 C24.4760338,25.3749922 23.2295996,25.5364694 21.9803364,25.5491197 C19.9191654,25.5699554 17.8579943,25.5837219 15.7966346,25.6025113 C15.6133189,25.6043717 15.4118978,25.5764666 15.250082,25.639532 C14.7938671,25.8170081 14.347082,25.7351533 13.8910557,25.672274 C13.5823232,25.6296722 13.2692531,25.6030694 12.9575031,25.5993488 C11.7982004,25.5848381 10.6387092,25.5725599 9.47921798,25.5820476 C9.13521798,25.5848381 8.79197237,25.6620421 8.44816096,25.7022254 C8.34047237,25.7146896 8.20543728,25.7606399 8.12773553,25.7159919 C7.69716974,25.4687531 7.23001623,25.5667929 6.77700746,25.5515381 C6.33833202,25.5364694 5.898525,25.5481895 5.38931447,25.5481895" id="Fill-6" fill="#FFFFFF"></path>
                        <path d="M18.8033154,28.5885935 C18.368789,28.9960073 17.8795697,28.928291 17.4097759,28.9377787 C16.2319908,28.961405 15.0538285,28.9775899 13.8758548,28.9926586 C13.6484075,28.9956352 13.3981399,29.0624213 13.2717803,28.75714 C13.2468855,28.6972372 13.037732,28.6644953 12.9324952,28.6910981 C11.0216355,29.1727392 9.08871009,28.9305234 7.16276272,28.8678301 C6.79726272,28.8561099 6.42968816,28.7939747 6.07078904,28.7199333 C5.50254781,28.6027321 5.43710482,28.5059946 5.4546443,27.9490098 C5.45803904,27.8439008 5.47765307,27.7391638 5.49462675,27.5938715 C5.69567061,27.5828955 5.8738943,27.5648503 6.05249518,27.5648503 C11.8510829,27.5663385 17.6496706,27.5698732 23.4484469,27.5721056 C24.4331092,27.5724776 25.4168285,27.8310644 26.4024338,27.5827095 C29.5868855,27.5949877 32.7717145,27.6070799 35.9563548,27.6208464 C36.1364645,27.6215905 36.3165741,27.6370313 36.486311,27.6450308 C36.6601969,28.574455 36.6113504,28.6786338 35.7460697,28.8099736 C34.303118,29.0289352 32.8516794,29.0639095 31.3992978,28.8979675 C31.2752013,28.883829 31.1586487,28.8161127 31.0353066,28.7874635 C30.9347846,28.7642093 30.8267189,28.7424434 30.7261969,28.7547216 C30.4576355,28.7876495 30.1926575,28.8641094 29.9235303,28.8797362 C26.4280829,29.0810246 22.930561,28.9186173 19.4341706,28.92271 C19.1791882,28.9230821 18.9181706,28.9480106 18.8033154,28.5885935" id="Fill-8" fill="#FFFFFF"></path>
                        <path d="M30.9572088,9.12230968 C31.642757,9.12230968 32.2800246,9.10370631 32.9161605,9.12696052 C33.720336,9.15635384 34.5231912,9.21923322 35.3266123,9.26946231 C35.4361868,9.27634556 35.5467044,9.28583327 35.6545816,9.30648301 C36.4730904,9.46293732 36.6792263,9.77268338 36.5213711,10.6358796 C36.4046298,10.6485299 36.2799675,10.6764349 36.1562482,10.6736444 C34.9641298,10.6455533 33.7718228,10.621741 32.5802702,10.5744885 C32.2536211,10.5616522 31.9239544,10.4959823 31.6061693,10.4150576 C31.0177482,10.2651145 30.8978009,10.0872663 30.9187351,9.48972617 C30.9217526,9.40191828 30.9366518,9.31466849 30.9572088,9.12230968" id="Fill-10" fill="#FFFFFF"></path>
                        <path d="M4.48878509,12.7606259 C5.59641228,13.6865155 6.6917807,14.5923134 8.30126316,13.7810206 C8.01912281,14.1047192 7.79299561,14.2291757 7.39222807,14.2946595 C6.86415789,14.3809791 6.3694693,14.2842416 5.90325877,14.0301197 C5.33237719,13.7188853 4.8695614,13.2871012 4.48878509,12.7606259" id="Fill-12" fill="#FFFFFF"></path>
                        <path d="M7.87405439,0.378094824 C6.70400175,0.780671679 5.65408509,1.14678594 5.48265088,2.5031574 C5.21937018,1.32054138 6.59593596,0.436509396 7.87405439,0.378094824" id="Fill-14" fill="#FFFFFF"></path>
                        <path d="M3.18443289,14.0537645 L3.18443289,14.3307687 C2.79969605,14.0247433 2.55112588,13.7099743 2.42985833,13.3273031 C2.35555132,13.0927146 2.10094605,12.868358 2.30576184,12.5835405 C2.45682763,12.8069669 2.60808202,13.0305794 2.7593364,13.2540058 C2.81082325,13.5382652 2.85721798,13.8251292 3.15670921,13.9763745 C3.17104254,14.0005589 3.18047237,14.0262316 3.18443289,14.0537645" id="Fill-16" fill="#FFFFFF"></path>
                        <path d="M3.15670921,13.9764303 C2.85721798,13.825185 2.81082325,13.5383211 2.7593364,13.2540616 C2.98961272,13.4425137 3.11766974,13.6856597 3.15670921,13.9764303" id="Fill-18" fill="#FFFFFF"></path>
                        <path d="M20.5636184,32.8022003 C20.5651272,32.2956306 20.8182237,32.1071785 21.4147544,32.1365718 C21.4298421,32.214892 21.457,32.2999094 21.4592632,32.3854849 C21.4613377,32.4721765 21.4390833,32.5594263 21.4217325,32.6868594 C21.1312939,32.7259265 20.8512281,32.7636913 20.5636184,32.8022003" id="Fill-20" fill="#FFFFFF"></path>
                        <path d="M31.3230105,1.55357224 C31.3682737,1.52450304 31.4078789,1.4801442 31.4525763,1.47391509 C31.5949667,1.45466146 31.7543307,1.42672483 31.7954447,1.62681152 C31.8033658,1.66475249 31.7596114,1.74497592 31.7247211,1.75554654 C31.5425368,1.81009848 31.3656333,1.8284083 31.3230105,1.55357224" id="Fill-22" fill="#FFFFFF"></path>
                        <path d="M20.2782531,36.4330938 C20.3610469,36.3836088 20.4436522,36.3339378 20.5264461,36.285011 C20.6290425,36.224364 20.7314504,36.1640891 20.8415908,36.0993494 C20.8544154,36.4526273 20.8544154,36.4526273 20.3568978,36.5411793 C20.3304943,36.5052748 20.304468,36.4691843 20.2782531,36.4330938" id="Fill-24" fill="#FFFFFF"></path>
                        <path d="M22.7891031,1.36076186 C22.8958643,1.47405636 22.9926754,1.5317268 22.9803051,1.57451454 C22.9655145,1.62474363 22.8625182,1.66939171 22.7839936,1.69878503 C22.7673206,1.70492414 22.6508783,1.63330118 22.6506094,1.59739668 C22.6500716,1.54214468 22.7105785,1.48670665 22.7891031,1.36076186" id="Fill-26" fill="#FFFFFF"></path>
                    </g>
                    <rect id="Rectangle-2" fill="#D8D8D8" opacity="0.4" x="142" y="0" width="1" height="38"></rect>
                </g>
            </g>
        </g>
    </g>
</svg>