<svg xmlns="http://www.w3.org/2000/svg" width="50" height="46" viewBox="0 0 50 46">
    <path fill="#FF5502" fill-rule="nonzero" d="M33.887 14.407a1.728 1.728 0 0 0-1.229-.507c-.464 0-.9.18-1.228.507l-4.573 4.558-4.57-4.556a1.73 1.73 0 0 0-1.23-.508 1.73 1.73 0 0 0-1.228 2.956l2.834 2.825h-2.765a.336.336 0 0 0-.336.335v2.793c0 .185.15.335.336.335h5.223v2.32h-5.223a.337.337 0 0 0-.336.334v2.793c0 .185.15.336.336.336h5.223v5.206a1.736 1.736 0 0 0 3.474 0v-5.206h5.223c.186 0 .337-.15.337-.336V25.8a.336.336 0 0 0-.337-.335h-5.223v-2.319h5.223c.186 0 .337-.15.337-.335v-2.793a.336.336 0 0 0-.337-.335h-2.766l2.835-2.826a1.73 1.73 0 0 0 0-2.449zm14.217-.374a22.893 22.893 0 0 0-4.94-7.303 22.974 22.974 0 0 0-7.326-4.924A22.971 22.971 0 0 0 26.865 0c-3.111 0-6.13.608-8.972 1.806a22.975 22.975 0 0 0-7.327 4.924 22.897 22.897 0 0 0-6.092 10.768L3.326 14.92a1.74 1.74 0 0 0-3.21.081c-.166.432-.154.902.035 1.325l3.56 7.99c.019.042.04.085.062.128l.008.014a1.738 1.738 0 0 0 .251.348l.006.006.032.033c.01.012.023.023.034.034l.005.004a1.605 1.605 0 0 0 .26.205l.007.004c.03.02.063.038.096.057l.011.005c.07.038.144.071.218.099l.006.002.1.033.011.003.01.003c.033.01.063.017.093.024h.001l.015.004.006.001a1.768 1.768 0 0 0 .14.024h.007l.062.007h.008l.044.004.064.003H5.307c.046 0 .094-.001.146-.006H5.462a1.76 1.76 0 0 0 .141-.02c.008 0 .014-.002.021-.003.044-.008.088-.018.131-.03l.02-.005h.004c.034-.01.069-.022.104-.034l.006-.002a2.007 2.007 0 0 0 .122-.048l.004-.002.015-.007a1.688 1.688 0 0 0 .151-.078l.017-.01.004-.003c.093-.055.18-.12.262-.192l6.599-5.763a1.73 1.73 0 0 0-1.146-3.034c-.42 0-.827.153-1.144.43L7.64 19.29c1.753-9.086 9.857-15.827 19.225-15.827 10.795 0 19.576 8.754 19.576 19.515 0 10.76-8.781 19.513-19.576 19.513-4.67 0-9.193-1.666-12.735-4.693a1.742 1.742 0 0 0-2.45.188 1.73 1.73 0 0 0 .188 2.442 23.1 23.1 0 0 0 14.997 5.527c3.111 0 6.13-.608 8.973-1.807a22.975 22.975 0 0 0 7.326-4.923 22.894 22.894 0 0 0 4.94-7.303 22.772 22.772 0 0 0 1.812-8.944c0-3.101-.61-6.11-1.812-8.945z"/>
</svg>
