<svg xmlns="http://www.w3.org/2000/svg" width="50" height="49" viewBox="0 0 50 49">
    <g fill="#FF5502" fill-rule="nonzero">
        <path d="M24.318 8.67L8.672 15.612l16.387 6.78 15.975-6.698-16.716-7.026zM8.589 32.526l15.482 7.189V23.782l-15.482-6.29v15.035zm4.859-9.725l6.176 2.862v2.206l-6.176-2.859v-2.209zm12.599.98v15.934l15.48-7.597V17.165l-15.48 6.617z"/>
        <path d="M48.26 37.18h-2.464c5.882-9.578 4.455-21.946-3.66-29.991-9.623-9.542-25.279-9.542-34.902 0-9.623 9.54-9.623 25.066 0 34.607 4.739 4.699 11.058 7.171 17.467 7.171 3.75 0 7.449-.847 10.817-2.48a1.71 1.71 0 0 0 .872-.979 1.694 1.694 0 0 0-.082-1.304 1.73 1.73 0 0 0-2.301-.785c-8.145 3.944-17.926 2.322-24.34-4.037-8.279-8.21-8.279-21.568 0-29.78 8.28-8.21 21.752-8.208 30.033 0 6.869 6.81 8.171 17.218 3.396 25.399 0 0-.943 2.202-1.894 2.202-.952 0-1.55.743-1.55 1.685 0 .943.77 1.707 1.722 1.707h6.887c.95 0 1.72-.765 1.72-1.707 0-.943-.77-1.707-1.72-1.707z"/>
    </g>
</svg>
