<?xml version="1.0" encoding="UTF-8"?>
<svg width="12px" height="9px" viewBox="0 0 12 9" version="1.1" xmlns="http://www.w3.org/2000/svg" xmlns:xlink="http://www.w3.org/1999/xlink">
    <!-- Generator: Sketch 45.2 (43514) - http://www.bohemiancoding.com/sketch -->
    <title>Combined Shape</title>
    <desc>Created with Sketch.</desc>
    <defs></defs>
    <g id="Page-1" stroke="none" stroke-width="1" fill="none" fill-rule="evenodd">
        <g id="03-2商品详情页-满赠提示" transform="translate(-1032.000000, -466.000000)" fill="#F9EAD0">
            <g id="Group-41" transform="translate(1004.000000, 462.000000)">
                <path d="M32.1837429,8.519758 L28.1024897,4.56070523 C27.9658368,4.42817352 27.9658368,4.23071388 28.1024897,4.09906718 C28.2391427,3.96742048 28.4427427,3.96653548 28.5784831,4.09906718 L32.863347,8.25557959 C32.9312172,8.32140295 33,8.45393464 33,8.519758 C33,8.58558135 33,8.71811305 32.9321298,8.7839364 L28.5784939,13.0062722 C28.4418409,13.1388039 28.2382409,13.1388039 28.1025005,13.0062722 C27.96676,12.8737405 27.9658475,12.6762808 28.1025005,12.5446341 L32.1837429,8.519758 Z M39.1837429,8.519758 L35.1024897,4.56070523 C34.9658368,4.42817352 34.9658368,4.23071388 35.1024897,4.09906718 C35.2391427,3.96742048 35.4427427,3.96653548 35.5784831,4.09906718 L39.863347,8.25557959 C39.9312172,8.32140295 40,8.45393464 40,8.519758 C40,8.58558135 40,8.71811305 39.9321298,8.7839364 L35.5784939,13.0062722 C35.4418409,13.1388039 35.2382409,13.1388039 35.1025005,13.0062722 C34.96676,12.8737405 34.9658475,12.6762808 35.1025005,12.5446341 L39.1837429,8.519758 Z" id="Combined-Shape"></path>
            </g>
        </g>
    </g>
</svg>