<?xml version="1.0" encoding="UTF-8"?>
<svg width="82px" height="82px" viewBox="0 0 82 82" version="1.1" xmlns="http://www.w3.org/2000/svg" xmlns:xlink="http://www.w3.org/1999/xlink">
    <!-- Generator: Sketch 45.2 (43514) - http://www.bohemiancoding.com/sketch -->
    <title>Group 14</title>
    <desc>Created with Sketch.</desc>
    <defs>
        <circle id="path-1" cx="40" cy="40" r="40"></circle>
    </defs>
    <g id="Page-1" stroke="none" stroke-width="1" fill="none" fill-rule="evenodd">
        <g id="账户中心（拆单）" transform="translate(-584.000000, -326.000000)">
            <g id="Group-14" transform="translate(585.000000, 327.000000)">
                <mask id="mask-2" fill="white">
                    <use xlink:href="#path-1"></use>
                </mask>
                <use id="Mask" stroke="#4A4A4A" stroke-width="2" fill="#FFFFFF" xlink:href="#path-1"></use>
                <g id="Group-13" mask="url(#mask-2)">
                    <g transform="translate(20.000000, 20.000000)">
                        <ellipse id="Oval-5" fill="#FFEDA6" cx="26.1016949" cy="25.3975904" rx="17.8983051" ry="17.9277108"></ellipse>
                        <path d="M21.6271186,43.3253012 C9.68279083,43.3253012 0,33.6266022 0,21.6626506 C0,9.69869903 9.68279083,0 21.6271186,0 C33.5714465,0 43.2542373,9.69869903 43.2542373,21.6626506 C43.2542373,33.6266022 33.5714465,43.3253012 21.6271186,43.3253012 Z M21.6271186,43.3253012 C11.7421577,43.3253012 3.72881356,35.2987917 3.72881356,25.3975904 C3.72881356,15.4963891 11.7421577,7.46987952 21.6271186,7.46987952 C31.5120796,7.46987952 39.5254237,15.4963891 39.5254237,25.3975904 C39.5254237,35.2987917 31.5120796,43.3253012 21.6271186,43.3253012 Z" id="Combined-Shape" fill="#4A4A4A"></path>
                        <path d="M6.71186441,48.3421739 C6.71186441,43.9212314 10.2952936,40.3373494 14.7058932,40.3373494 L28.548344,40.3373494 C32.9633243,40.3373494 36.5423729,43.9144956 36.5423729,48.3421739 L36.5423729,53.9951755 C36.5423729,58.416118 32.9589436,62 28.548344,62 L6.71186441,62 L6.71186441,48.3421739 Z" id="Rectangle-2" fill="#4A4A4A"></path>
                        <path d="M27.2405457,13.1983977 C31.4485985,14.8078839 34.4374461,18.8891494 34.4374461,23.6696445 C34.4374461,28.0445208 31.9342806,31.833791 28.284276,33.6789004 C30.2572253,31.1110096 31.4543952,27.7377044 31.4543952,24.0431385 C31.4543952,19.7358314 29.8271964,15.8651833 27.2405457,13.1983977 Z" id="Combined-Shape" fill="#4A4A4A" transform="translate(30.838996, 23.438649) rotate(-11.000000) translate(-30.838996, -23.438649) "></path>
                        <rect id="Rectangle-5" fill="#FFFFFF" x="16.4067797" y="47.8072289" width="11.9322034" height="7.46987952" rx="2"></rect>
                    </g>
                </g>
            </g>
        </g>
    </g>
</svg>