<?xml version="1.0" encoding="UTF-8"?>
<svg width="52px" height="60px" viewBox="0 0 52 60" version="1.1" xmlns="http://www.w3.org/2000/svg" xmlns:xlink="http://www.w3.org/1999/xlink">
    <!-- Generator: Sketch 45.2 (43514) - http://www.bohemiancoding.com/sketch -->
    <title>Shape</title>
    <desc>Created with Sketch.</desc>
    <defs></defs>
    <g id="Page-1" stroke="none" stroke-width="1" fill="none" fill-rule="evenodd">
        <g id="账户中心-无收货地址" transform="translate(-1035.000000, -391.000000)" fill-rule="nonzero" fill="#908888">
            <g id="Group-10" transform="translate(910.000000, 391.000000)">
                <path d="M151.003388,9.5215107e-16 C136.63987,9.5215107e-16 125,11.5108878 125,25.7152429 C125,42.8609715 150.996612,60 150.996612,60 C150.996612,60 177,42.8609715 177,25.7152429 C177,11.5108878 165.36013,0 151.003388,9.5215107e-16 Z M151.145668,36.5025126 C143.936808,36.5025126 138.089772,30.720268 138.089772,23.5912898 C138.089772,16.4623116 143.936808,10.680067 151.145668,10.680067 C158.354528,10.680067 164.201564,16.4623116 164.201564,23.5912898 C164.201564,30.720268 158.354528,36.5025126 151.145668,36.5025126 Z" id="Shape"></path>
            </g>
        </g>
    </g>
</svg>