<?xml version="1.0" encoding="UTF-8"?>
<svg width="12px" height="9px" viewBox="0 0 12 9" version="1.1" xmlns="http://www.w3.org/2000/svg" xmlns:xlink="http://www.w3.org/1999/xlink">
    <!-- Generator: Sketch 45.2 (43514) - http://www.bohemiancoding.com/sketch -->
    <title>Combined Shape</title>
    <desc>Created with Sketch.</desc>
    <defs></defs>
    <g id="Page-1" stroke="none" stroke-width="1" fill="none" fill-rule="evenodd">
        <g id="提交订单-支付宝支付" transform="translate(-506.000000, -784.000000)" fill="#FF4544">
            <g id="Group-4" transform="translate(370.000000, 776.000000)">
                <path d="M140.183743,12.5859129 L136.1025,8.56103682 C135.965847,8.42939013 135.96676,8.23193049 136.1025,8.09939878 C136.238241,7.96686707 136.441841,7.96686707 136.578494,8.09939878 L140.93213,12.3217345 C141,12.3875579 141,12.5200896 141,12.5859129 C141,12.6517363 140.931217,12.784268 140.863347,12.8500914 L136.578483,17.0066038 C136.442743,17.1391355 136.239143,17.1382505 136.10249,17.0066038 C135.965837,16.8749571 135.965837,16.6774974 136.10249,16.5449657 L140.183743,12.5859129 Z M147.183743,12.5859129 L143.1025,8.56103682 C142.965847,8.42939013 142.96676,8.23193049 143.1025,8.09939878 C143.238241,7.96686707 143.441841,7.96686707 143.578494,8.09939878 L147.93213,12.3217345 C148,12.3875579 148,12.5200896 148,12.5859129 C148,12.6517363 147.931217,12.784268 147.863347,12.8500914 L143.578483,17.0066038 C143.442743,17.1391355 143.239143,17.1382505 143.10249,17.0066038 C142.965837,16.8749571 142.965837,16.6774974 143.10249,16.5449657 L147.183743,12.5859129 Z" id="Combined-Shape"></path>
            </g>
        </g>
    </g>
</svg>