<?xml version="1.0" encoding="UTF-8"?>
<svg width="7px" height="13px" viewBox="0 0 7 13" version="1.1" xmlns="http://www.w3.org/2000/svg" xmlns:xlink="http://www.w3.org/1999/xlink">
    <!-- Generator: Sketch 45.2 (43514) - http://www.bohemiancoding.com/sketch -->
    <title>手机</title>
    <desc>Created with Sketch.</desc>
    <defs></defs>
    <g id="Page-1" stroke="none" stroke-width="1" fill="none" fill-rule="evenodd">
        <g id="一级分类" transform="translate(-1489.000000, -12.000000)" fill-rule="nonzero" fill="#000000">
            <g id="Group">
                <g id="Group-29">
                    <g id="Group-30">
                        <g id="Group-14" transform="translate(1133.000000, 10.294118)">
                            <g id="手机" transform="translate(359.500000, 8.235294) scale(-1, 1) translate(-359.500000, -8.235294) translate(356.000000, 2.058824)">
                                <path d="M6.47696132,0.00132086857 L0.522855208,0.00132086857 C0.240762456,0.00132086857 0.0119640589,0.259414122 0.0119640589,0.577579577 L0.0119640589,11.7654718 C0.0119640589,12.0836514 0.240762456,12.3417305 0.522855208,12.3417305 L6.47696132,12.3417305 C6.75903999,12.3417305 6.98744435,12.0836514 6.98744435,11.7654718 L6.98744435,0.577579577 C6.98745842,0.259414122 6.75903999,0.00132086857 6.47696132,0.00132086857 Z M3.28612573,0.539600625 L3.65074239,0.539600625 C3.72848149,0.539600625 3.79140175,0.610112812 3.79140175,0.697075037 C3.79140175,0.784037247 3.72848149,0.854535331 3.65074239,0.854535331 L3.28612573,0.854535331 C3.20838663,0.854535331 3.1454945,0.784037247 3.1454945,0.697075037 C3.1454945,0.610112812 3.20838663,0.539600625 3.28612573,0.539600625 Z M3.49971124,12.0631383 C3.17912891,12.0631383 2.91949663,11.8028441 2.91949663,11.481462 C2.91949663,11.1601223 3.17912891,10.8997999 3.49971124,10.8997999 C3.82029357,10.8997999 4.07992585,11.1601082 4.07992585,11.481462 C4.07991178,11.8028441 3.82029357,12.0631383 3.49971124,12.0631383 Z M6.31026695,10.2695073 C6.31026695,10.4583298 6.17363245,10.6115718 6.00533376,10.6115718 L1.02776535,10.6115718 C0.859072621,10.6115718 0.722409971,10.4583298 0.722409971,10.2695073 L0.722409971,1.40548415 C0.722409971,1.21667568 0.859058538,1.0634337 1.02776535,1.0634337 L6.00533376,1.0634337 C6.17363245,1.0634337 6.31026695,1.21667568 6.31026695,1.40548415 L6.31026695,10.2695073 Z" id="Shape"></path>
                            </g>
                        </g>
                    </g>
                </g>
            </g>
        </g>
    </g>
</svg>