<?xml version="1.0" encoding="UTF-8"?>
<svg width="12px" height="16px" viewBox="0 0 12 16" version="1.1" xmlns="http://www.w3.org/2000/svg" xmlns:xlink="http://www.w3.org/1999/xlink">
    <!-- Generator: Sketch 45.2 (43514) - http://www.bohemiancoding.com/sketch -->
    <title>钱</title>
    <desc>Created with Sketch.</desc>
    <defs></defs>
    <g id="Page-1" stroke="none" stroke-width="1" fill="none" fill-rule="evenodd">
        <g id="订单结算页-有收货地址-自提与配送-开发票" transform="translate(-1728.000000, -2071.000000)" fill-rule="nonzero" fill="#FF4544">
            <g id="钱" transform="translate(1728.000000, 2071.000000)">
                <path d="M11.574738,0.00756256569 L9.44358053,0.00756256569 L7.04737003,4.42274693 C6.40833323,5.61930004 6.01747408,6.41459134 5.87475954,6.80880246 L5.83397453,6.80880246 C5.41240277,5.85030505 4.22286733,3.58330214 2.2650875,0.00757907784 L0.0115915308,0.00757907784 L4.20245831,7.20646462 L0.766147348,7.20646462 L0.766147348,8.79714628 L4.79384104,8.79714628 L4.79384104,10.9894482 L0.766147348,10.9894482 L0.766147348,12.6005389 L4.79384104,12.6005389 L4.79384104,15.7921233 L6.79237286,15.7921233 L6.79237286,12.6005389 L10.677319,12.6005389 L10.677319,10.9894482 L6.79238938,10.9894482 L6.79238938,8.79714628 L10.6773355,8.79714628 L10.6773355,7.20646462 L7.34303663,7.20646462 L11.5746884,0.00757907784 L11.574738,0.00756256569 Z" id="Shape"></path>
            </g>
        </g>
    </g>
</svg>