<?xml version="1.0" encoding="UTF-8"?>
<svg width="9px" height="13px" viewBox="0 0 9 13" version="1.1" xmlns="http://www.w3.org/2000/svg" xmlns:xlink="http://www.w3.org/1999/xlink">
    <!-- Generator: Sketch 45.2 (43514) - http://www.bohemiancoding.com/sketch -->
    <title>新闻</title>
    <desc>Created with Sketch.</desc>
    <defs></defs>
    <g id="Page-1" stroke="none" stroke-width="1" fill="none" fill-rule="evenodd">
        <g id="一级分类" transform="translate(-1407.000000, -12.000000)" fill-rule="nonzero" fill="#000000">
            <g id="Group">
                <g id="Group-29">
                    <g id="Group-30">
                        <g id="Group-14" transform="translate(1133.000000, 10.294118)">
                            <g id="新闻" transform="translate(274.000000, 2.058824)">
                                <path d="M2.60281855,0.00779964154 L2.60281855,0.0154321186 L0.0076732316,2.59430482 L0.0076732316,12.352343 L8.99232677,12.352343 L8.99232677,0.00779964154 L2.60281855,0.00779964154 Z M7.95950633,11.3238356 L1.04047954,11.3238356 L1.04047954,3.62279808 L3.63563899,3.62279808 L3.63563899,1.03610952 L7.95952045,1.03610952 L7.95952046,11.3238356 L7.95950633,11.3238356 Z" id="Shape"></path>
                                <polygon id="Shape" points="3.27580875 5.16768947 7.19204552 5.16768947 7.19204552 6.02461435 3.27580875 6.02461435"></polygon>
                                <polygon id="Shape" points="3.27580875 6.99000218 7.19204552 6.99000218 7.19204552 7.84692706 3.27580875 7.84692706"></polygon>
                                <polygon id="Shape" points="3.27580875 8.8222752 7.19204552 8.8222752 7.19204552 9.67920008 3.27580875 9.67920008"></polygon>
                                <path d="M2.26106881,5.16768947 C2.0238611,5.16768947 1.83158626,5.35909381 1.83158626,5.59547473 C1.83158626,5.83168635 2.0238611,6.02309069 2.26106881,6.02309069 C2.49810702,6.02309069 2.69046661,5.83168635 2.69046661,5.59547473 C2.69046661,5.35909383 2.49810703,5.16768947 2.26106881,5.16768947 Z" id="Shape"></path>
                                <path d="M2.26106881,6.98766025 C2.0238611,6.98766025 1.83158626,7.17916335 1.83158626,7.41527621 C1.83158626,7.65165711 2.0238611,7.84332951 2.26106881,7.84332951 C2.49810702,7.84332951 2.69046661,7.65165711 2.69046661,7.41527621 C2.69046661,7.17916335 2.49810703,6.98766025 2.26106881,6.98766025 Z" id="Shape"></path>
                                <path d="M2.26106881,8.81589834 C2.0238611,8.81589834 1.83158626,9.00738733 1.83158626,9.2435143 C1.83158626,9.4797118 2.0238611,9.67139832 2.26106881,9.67139832 C2.49810702,9.67139832 2.69046661,9.47972592 2.69046661,9.2435143 C2.69046661,9.00738733 2.49810703,8.81589834 2.26106881,8.81589834 Z" id="Shape"></path>
                            </g>
                        </g>
                    </g>
                </g>
            </g>
        </g>
    </g>
</svg>