<?xml version="1.0" encoding="UTF-8"?>
<svg width="16px" height="16px" viewBox="0 0 16 16" version="1.1" xmlns="http://www.w3.org/2000/svg" xmlns:xlink="http://www.w3.org/1999/xlink">
    <!-- Generator: Sketch 45.2 (43514) - http://www.bohemiancoding.com/sketch -->
    <title>二维码-2</title>
    <desc>Created with Sketch.</desc>
    <defs></defs>
    <g id="Page-1" stroke="none" stroke-width="1" fill="none" fill-rule="evenodd">
        <g id="商品详情页-领券" transform="translate(-1170.000000, -397.000000)" fill-rule="nonzero" fill="#FFFFFF">
            <g id="Group-18" transform="translate(1164.000000, 397.000000)">
                <g id="二维码-2" transform="translate(6.000000, 0.000000)">
                    <path d="M15.9846076,0.00421265823 L10.4588962,0.00421265823 L10.4588962,5.52862785 L15.9846076,5.52862785 L15.9846076,0.00421265823 Z M11.4854886,1.02950886 L14.9580152,1.02950886 L14.9580152,4.50203544 L11.4854886,4.50203544 L11.4854886,1.02950886 Z" id="Shape"></path>
                    <path d="M0.0153924051,15.9345418 L5.53980759,15.9345418 L5.53980759,10.412719 L0.0153924051,10.412719 L0.0153924051,15.9345418 Z M4.51451139,14.9092456 L1.04198481,14.9092456 L1.04198481,11.436719 L4.51451139,11.436719 L4.51451139,14.9092456 Z" id="Shape"></path>
                    <polygon id="Shape" points="14.9580152 6.94537722 15.9846076 6.94537722 15.9846076 8.97911899 14.9580152 8.97911899 14.9580152 6.94537722"></polygon>
                    <polygon id="Shape" points="7.4867038 10.4114228 15.9846076 10.4114228 15.9846076 11.436719 7.4867038 11.436719"></polygon>
                    <polygon id="Shape" points="7.4867038 12.8742076 8.5132962 12.8742076 8.5132962 15.955281 7.4867038 15.955281 7.4867038 12.8742076"></polygon>
                    <polygon id="Shape" points="7.4867038 0.00680506329 8.5132962 0.00680506329 8.5132962 8.97911899 7.4867038 8.97911899 7.4867038 0.00680506329"></polygon>
                    <polygon id="Shape" points="10.7272101 6.94537722 11.7512101 6.94537722 11.7512101 8.97911899 10.7272101 8.97911899 10.7272101 6.94537722"></polygon>
                    <polygon id="Shape" points="14.9580152 12.8742076 15.9846076 12.8742076 15.9846076 15.955281 14.9580152 15.955281"></polygon>
                    <polygon id="Shape" points="12.4693063 12.8742076 13.4946025 12.8742076 13.4946025 15.955281 12.4693063 15.955281"></polygon>
                    <polygon id="Shape" points="9.97800506 12.8742076 11.0033013 12.8742076 11.0033013 15.955281 9.97800506 15.955281"></polygon>
                    <polygon id="Shape" points="0.0192810127 7.45608101 5.57350886 7.45608101 5.57350886 8.48137722 0.0192810127 8.48137722"></polygon>
                    <polygon id="Shape" points="2.2656 2.05610127 3.2908962 2.05610127 3.2908962 3.47544304 2.2656 3.47544304 2.2656 2.05610127"></polygon>
                    <path d="M5.5411038,0.00421265823 L0.0153924051,0.00421265823 L0.0153924051,5.52862785 L5.53980759,5.52862785 L5.53980759,0.00421265823 L5.5411038,0.00421265823 Z M1.04198481,1.02950886 L4.51451139,1.02950886 L4.51451139,4.50203544 L1.04198481,4.50203544 L1.04198481,1.02950886 Z" id="Shape"></path>
                    <polygon id="Shape" points="2.2656 12.460719 3.2908962 12.460719 3.2908962 13.8852456 2.2656 13.8852456"></polygon>
                    <polygon id="Shape" points="12.7091038 2.05610127 13.7344 2.05610127 13.7344 3.47544304 12.7091038 3.47544304 12.7091038 2.05610127"></polygon>
                </g>
            </g>
        </g>
    </g>
</svg>