<?xml version="1.0" encoding="UTF-8"?>
<svg width="110px" height="116px" viewBox="0 0 110 116" version="1.1" xmlns="http://www.w3.org/2000/svg" xmlns:xlink="http://www.w3.org/1999/xlink">
    <!-- Generator: Sketch 45.2 (43514) - http://www.bohemiancoding.com/sketch -->
    <title>Group 13</title>
    <desc>Created with Sketch.</desc>
    <defs>
        <path d="M60,6 L0,6 L0,116 L110,116 L110,6 L68,6 L64,0 L60,6 Z" id="path-1"></path>
    </defs>
    <g id="Page-1" stroke="none" stroke-width="1" fill="none" fill-rule="evenodd">
        <g id="商品详情页" transform="translate(-1448.000000, -29.000000)">
            <g id="Group-13" transform="translate(1448.000000, 29.000000)">
                <g id="Combined-Shape">
                    <use fill="#FFFFFF" fill-rule="evenodd" xlink:href="#path-1"></use>
                    <path stroke="#666666" stroke-width="1" d="M0.5,6.5 L0.5,115.5 L109.5,115.5 L109.5,6.5 L67.7324081,6.5 L64,0.901387819 L60.2675919,6.5 L0.5,6.5 Z"></path>
                </g>
                <g id="Group-8" transform="translate(5.000000, 12.000000)">
                    <g id="Group-7">
                        <path d="M51.3207547,94.7169811 L37.7358491,94.7169811 L37.7358491,92.0754717 L51.3207547,92.0754717 L51.3207547,89.4339623 L46.0377358,89.4339623 L46.0377358,86.4150943 L48.6792453,86.4150943 L48.6792453,83.7735849 L51.3207547,83.7735849 L51.3207547,86.4150943 L53.9622642,86.4150943 L53.9622642,89.245283 L53.9622642,100 L51.3207547,100 L51.3207547,94.7169811 Z M59.8113208,94.7169811 L62.2641509,94.7169811 L62.2641509,86.4150943 L59.6226415,86.4150943 L59.6226415,92.0754717 L56.6037736,92.0754717 L56.6037736,94.7169811 L59.8113208,94.7169811 Z M83.7735849,56.6037736 L83.7735849,59.6226415 L81.1320755,59.6226415 L81.1320755,70.1886792 L78.490566,70.1886792 L78.490566,56.6037736 L80.754717,56.6037736 L80.754717,56.6037736 L72.8301887,56.6037736 L72.8301887,53.9622642 L86.4150943,53.9622642 L86.4150943,56.6037736 L83.7735849,56.6037736 Z M89.4339623,86.4150943 L92.0754717,86.4150943 L92.0754717,89.4339623 L89.4339623,89.4339623 L89.4339623,97.3584906 L86.4150943,97.3584906 L86.4150943,73.2075472 L89.4339623,73.2075472 L89.4339623,86.4150943 Z M40.3773585,83.7735849 L40.3773585,89.4339623 L37.7358491,89.4339623 L37.7358491,83.7735849 L35.0943396,83.7735849 L35.0943396,81.1320755 L43.3962264,81.1320755 L43.3962264,83.7735849 L40.3773585,83.7735849 Z M97.3584906,64.9056604 L97.3584906,73.2075472 L94.7169811,73.2075472 L94.7169811,64.7169811 L94.7169811,53.9622642 L100,53.9622642 L100,64.9056604 L97.3584906,64.9056604 Z M44.7169811,64.9056604 L40.3773585,64.9056604 L40.3773585,62.2641509 L46.0377358,62.2641509 L46.0377358,59.6226415 L48.6792453,59.6226415 L48.6792453,78.490566 L46.0377358,78.490566 L46.0377358,64.9056604 L44.7169811,64.9056604 L43.3962264,64.9056604 L43.3962264,67.5471698 L46.0377358,67.5471698 L46.0377358,64.9056604 L44.7169811,64.9056604 Z M35.0943396,64.9056604 L37.7358491,64.9056604 L37.7358491,67.5471698 L29.8113208,67.5471698 L29.8113208,64.9056604 L32.4528302,64.9056604 L32.4528302,62.2641509 L35.0943396,62.2641509 L35.0943396,64.9056604 Z M67.5471698,40.3773585 L67.5471698,37.7358491 L70.1886792,37.7358491 L70.1886792,40.3773585 L75.8490566,40.3773585 L75.8490566,43.3962264 L70.1886792,43.3962264 L70.1886792,48.6792453 L67.5471698,48.6792453 L67.5471698,43.3962264 L62.2641509,43.3962264 L62.2641509,40.3773585 L67.5471698,40.3773585 Z M59.6226415,35.8490566 L59.6226415,37.7358491 L46.0377358,37.7358491 L46.0377358,40.3773585 L43.3962264,40.3773585 L43.3962264,37.7358491 L40.3773585,37.7358491 L40.3773585,35.0943396 L43.3962264,35.0943396 L43.3962264,32.4528302 L46.0377358,32.4528302 L46.0377358,35.0943396 L56.6037736,35.0943396 L56.6037736,32.4528302 L59.6226415,32.4528302 L59.6226415,35.8490566 Z M74.5283019,26.7924528 L73.2075472,26.7924528 L73.2075472,21.509434 L75.8490566,21.509434 L75.8490566,16.2264151 L78.490566,16.2264151 L78.490566,21.509434 L81.1320755,21.509434 L81.1320755,26.7924528 L78.490566,26.7924528 L78.490566,29.8113208 L75.8490566,29.8113208 L75.8490566,26.7924528 L74.5283019,26.7924528 L73.2075472,26.7924528 L73.2075472,29.8113208 L75.8490566,29.8113208 L75.8490566,26.7924528 L74.5283019,26.7924528 Z M67.5471698,16.2264151 L67.5471698,18.8679245 L70.1886792,18.8679245 L70.1886792,21.509434 L67.5471698,21.509434 L67.5471698,24.1509434 L64.9056604,24.1509434 L64.9056604,21.509434 L62.2641509,21.509434 L62.2641509,18.8679245 L64.9056604,18.8679245 L64.9056604,13.5849057 L67.3584906,13.5849057 L70.1886792,13.5849057 L70.1886792,16.2264151 L67.5471698,16.2264151 Z M50,13.5849057 L53.9622642,13.5849057 L53.9622642,16.2264151 L51.3207547,16.2264151 L51.3207547,26.7924528 L48.6792453,26.7924528 L48.6792453,13.5849057 L50,13.5849057 Z M70.1886792,2.64150943 L70.1886792,0 L75.8490566,0 L75.8490566,2.64150943 L78.490566,2.64150943 L78.490566,5.28301887 L75.8490566,5.28301887 L75.8490566,13.5849057 L70.1886792,13.5849057 L70.1886792,5.28301887 L67.5471698,5.28301887 L67.5471698,2.64150943 L70.1886792,2.64150943 Z M64.9056604,7.9245283 L62.2641509,7.9245283 L62.2641509,10.5660377 L59.6226415,10.5660377 L59.6226415,7.9245283 L53.9622642,7.9245283 L53.9622642,2.64150943 L59.6226415,2.64150943 L59.6226415,0 L62.2641509,0 L62.2641509,2.64150943 L64.9056604,2.64150943 L64.9056604,0 L67.5471698,0 L67.5471698,13.5849057 L64.9056604,13.5849057 L64.9056604,7.9245283 Z M21.509434,37.7358491 L21.509434,35.0943396 L24.1509434,35.0943396 L24.1509434,43.3962264 L21.509434,43.3962264 L21.509434,40.3773585 L13.5849057,40.3773585 L13.5849057,37.7358491 L21.509434,37.7358491 Z M5.28301887,21.509434 L7.9245283,21.509434 L7.9245283,26.7924528 L5.28301887,26.7924528 L5.28301887,21.509434 Z M10.5660377,21.509434 L13.5849057,21.509434 L13.5849057,29.8113208 L10.5660377,29.8113208 L10.5660377,21.509434 Z M13.5849057,21.509434 L18.8679245,21.509434 L18.8679245,24.1509434 L13.5849057,24.1509434 L13.5849057,21.509434 Z M7.9245283,26.7924528 L10.5660377,26.7924528 L10.5660377,35.0943396 L7.9245283,35.0943396 L7.9245283,26.7924528 Z M5.28301887,29.8113208 L7.9245283,29.8113208 L7.9245283,35.0943396 L5.28301887,35.0943396 L5.28301887,29.8113208 Z M0,24.1509434 L5.28301887,24.1509434 L5.28301887,26.7924528 L0,26.7924528 L0,24.1509434 Z M2.64150943,26.7924528 L5.28301887,26.7924528 L5.28301887,29.8113208 L2.64150943,29.8113208 L2.64150943,26.7924528 Z M0,29.8113208 L2.64150943,29.8113208 L2.64150943,32.4528302 L0,32.4528302 L0,29.8113208 Z M2.64150943,35.0943396 L5.28301887,35.0943396 L5.28301887,37.7358491 L2.64150943,37.7358491 L2.64150943,35.0943396 Z M13.5849057,29.8113208 L16.2264151,29.8113208 L16.2264151,32.4528302 L13.5849057,32.4528302 L13.5849057,29.8113208 Z M16.2264151,26.7924528 L18.8679245,26.7924528 L18.8679245,29.8113208 L16.2264151,29.8113208 L16.2264151,26.7924528 Z M16.2264151,32.4528302 L21.509434,32.4528302 L21.509434,35.0943396 L16.2264151,35.0943396 L16.2264151,32.4528302 Z M10.5660377,35.0943396 L16.2264151,35.0943396 L16.2264151,37.7358491 L10.5660377,37.7358491 L10.5660377,35.0943396 Z M5.28301887,37.7358491 L10.5660377,37.7358491 L10.5660377,40.3773585 L5.28301887,40.3773585 L5.28301887,37.7358491 Z M75.8490566,29.8113208 L81.1320755,29.8113208 L81.1320755,32.4528302 L75.8490566,32.4528302 L75.8490566,29.8113208 Z M73.2075472,32.4528302 L78.490566,32.4528302 L78.490566,35.0943396 L73.2075472,35.0943396 L73.2075472,32.4528302 Z M75.8490566,35.0943396 L78.490566,35.0943396 L78.490566,37.7358491 L75.8490566,37.7358491 L75.8490566,35.0943396 Z M81.1320755,32.4528302 L83.7735849,32.4528302 L83.7735849,37.7358491 L81.1320755,37.7358491 L81.1320755,32.4528302 Z M81.1320755,26.7924528 L83.7735849,26.7924528 L83.7735849,29.8113208 L81.1320755,29.8113208 L81.1320755,26.7924528 Z M83.7735849,24.1509434 L86.4150943,24.1509434 L86.4150943,26.7924528 L83.7735849,26.7924528 L83.7735849,24.1509434 Z M62.2641509,7.9245283 L62.2641509,13.5849057 L64.9056604,13.5849057 L64.9056604,7.9245283 L62.2641509,7.9245283 Z M5.28301887,5.28301887 L13.5849057,5.28301887 L13.5849057,13.5849057 L5.28301887,13.5849057 L5.28301887,5.28301887 Z M86.4150943,5.28301887 L94.7169811,5.28301887 L94.7169811,13.5849057 L86.4150943,13.5849057 L86.4150943,5.28301887 Z M5.28301887,86.4150943 L13.5849057,86.4150943 L13.5849057,94.7169811 L5.28301887,94.7169811 L5.28301887,86.4150943 Z M21.509434,0 L24.1509434,0 L24.1509434,2.64150943 L21.509434,2.64150943 L21.509434,0 Z M46.0377358,10.5660377 L48.6792453,10.5660377 L48.6792453,13.5849057 L46.0377358,13.5849057 L46.0377358,10.5660377 Z M26.7924528,5.28301887 L35.0943396,5.28301887 L35.0943396,7.9245283 L26.7924528,7.9245283 L26.7924528,5.28301887 Z M29.8113208,0 L37.7358491,0 L37.7358491,2.64150943 L29.8113208,2.64150943 L29.8113208,0 Z M43.3962264,0 L51.3207547,0 L51.3207547,2.64150943 L43.3962264,2.64150943 L43.3962264,0 Z M43.3962264,5.28301887 L51.3207547,5.28301887 L51.3207547,7.9245283 L43.3962264,7.9245283 L43.3962264,5.28301887 Z M46.0377358,7.9245283 L51.3207547,7.9245283 L51.3207547,10.5660377 L46.0377358,10.5660377 L46.0377358,7.9245283 Z M37.7358491,2.64150943 L48.6792453,2.64150943 L48.6792453,5.28301887 L37.7358491,5.28301887 L37.7358491,2.64150943 Z M21.509434,7.9245283 L29.8113208,7.9245283 L29.8113208,10.5660377 L21.509434,10.5660377 L21.509434,7.9245283 Z M75.8490566,5.28301887 L78.490566,5.28301887 L78.490566,7.9245283 L75.8490566,7.9245283 L75.8490566,5.28301887 Z M67.5471698,7.9245283 L70.1886792,7.9245283 L70.1886792,10.5660377 L67.5471698,10.5660377 L67.5471698,7.9245283 Z M73.2075472,13.5849057 L78.490566,13.5849057 L78.490566,16.2264151 L73.2075472,16.2264151 L73.2075472,13.5849057 Z M53.9622642,10.5660377 L59.6226415,10.5660377 L59.6226415,13.5849057 L53.9622642,13.5849057 L53.9622642,10.5660377 Z M53.9622642,16.2264151 L56.6037736,16.2264151 L56.6037736,32.4528302 L53.9622642,32.4528302 L53.9622642,16.2264151 Z M51.3207547,21.509434 L53.9622642,21.509434 L53.9622642,26.7924528 L51.3207547,26.7924528 L51.3207547,21.509434 Z M56.6037736,18.8679245 L59.6226415,18.8679245 L59.6226415,21.509434 L56.6037736,21.509434 L56.6037736,18.8679245 Z M59.6226415,13.5849057 L62.2641509,13.5849057 L62.2641509,18.8679245 L59.6226415,18.8679245 L59.6226415,13.5849057 Z M70.1886792,16.2264151 L73.2075472,16.2264151 L73.2075472,26.7924528 L70.1886792,26.7924528 L70.1886792,16.2264151 Z M35.0943396,7.9245283 L40.3773585,7.9245283 L40.3773585,16.2264151 L35.0943396,16.2264151 L35.0943396,7.9245283 Z M29.8113208,10.5660377 L35.0943396,10.5660377 L35.0943396,13.5849057 L29.8113208,13.5849057 L29.8113208,10.5660377 Z M26.7924528,13.5849057 L29.8113208,13.5849057 L29.8113208,21.509434 L26.7924528,21.509434 L26.7924528,13.5849057 Z M29.8113208,18.8679245 L32.4528302,18.8679245 L32.4528302,21.509434 L29.8113208,21.509434 L29.8113208,18.8679245 Z M32.4528302,16.2264151 L35.0943396,16.2264151 L35.0943396,18.8679245 L32.4528302,18.8679245 L32.4528302,16.2264151 Z M21.509434,16.2264151 L24.1509434,16.2264151 L24.1509434,18.8679245 L21.509434,18.8679245 L21.509434,16.2264151 Z M40.3773585,13.5849057 L46.0377358,13.5849057 L46.0377358,16.2264151 L40.3773585,16.2264151 L40.3773585,13.5849057 Z M37.7358491,16.2264151 L40.3773585,16.2264151 L40.3773585,18.8679245 L37.7358491,18.8679245 L37.7358491,16.2264151 Z M35.0943396,18.8679245 L46.0377358,18.8679245 L46.0377358,21.509434 L35.0943396,21.509434 L35.0943396,18.8679245 Z M43.3962264,16.2264151 L46.0377358,16.2264151 L46.0377358,18.8679245 L43.3962264,18.8679245 L43.3962264,16.2264151 Z M21.509434,21.509434 L24.1509434,21.509434 L24.1509434,29.8113208 L21.509434,29.8113208 L21.509434,21.509434 Z M24.1509434,24.1509434 L29.8113208,24.1509434 L29.8113208,26.7924528 L24.1509434,26.7924528 L24.1509434,24.1509434 Z M29.8113208,21.509434 L37.7358491,21.509434 L37.7358491,26.7924528 L29.8113208,26.7924528 L29.8113208,21.509434 Z M26.7924528,26.7924528 L32.4528302,26.7924528 L32.4528302,29.8113208 L26.7924528,29.8113208 L26.7924528,26.7924528 Z M24.1509434,29.8113208 L29.8113208,29.8113208 L29.8113208,32.4528302 L24.1509434,32.4528302 L24.1509434,29.8113208 Z M29.8113208,32.4528302 L32.4528302,32.4528302 L32.4528302,35.0943396 L29.8113208,35.0943396 L29.8113208,32.4528302 Z M43.3962264,21.509434 L46.0377358,21.509434 L46.0377358,24.1509434 L43.3962264,24.1509434 L43.3962264,21.509434 Z M40.3773585,24.1509434 L48.6792453,24.1509434 L48.6792453,26.7924528 L40.3773585,26.7924528 L40.3773585,24.1509434 Z M46.0377358,26.7924528 L48.6792453,26.7924528 L48.6792453,32.4528302 L46.0377358,32.4528302 L46.0377358,26.7924528 Z M37.7358491,29.8113208 L46.0377358,29.8113208 L46.0377358,32.4528302 L37.7358491,32.4528302 L37.7358491,29.8113208 Z M56.6037736,24.1509434 L59.6226415,24.1509434 L59.6226415,26.7924528 L56.6037736,26.7924528 L56.6037736,24.1509434 Z M59.6226415,26.7924528 L62.2641509,26.7924528 L62.2641509,32.4528302 L59.6226415,32.4528302 L59.6226415,26.7924528 Z M62.2641509,26.7924528 L67.5471698,26.7924528 L67.5471698,29.8113208 L62.2641509,29.8113208 L62.2641509,26.7924528 Z M67.5471698,29.8113208 L73.2075472,29.8113208 L73.2075472,32.4528302 L67.5471698,32.4528302 L67.5471698,29.8113208 Z M62.2641509,32.4528302 L67.5471698,32.4528302 L67.5471698,37.7358491 L62.2641509,37.7358491 L62.2641509,32.4528302 Z M67.5471698,32.4528302 L70.1886792,32.4528302 L70.1886792,35.0943396 L67.5471698,35.0943396 L67.5471698,32.4528302 Z M59.6226415,37.7358491 L64.9056604,37.7358491 L64.9056604,40.3773585 L59.6226415,40.3773585 L59.6226415,37.7358491 Z M89.4339623,21.509434 L92.0754717,21.509434 L92.0754717,26.7924528 L89.4339623,26.7924528 L89.4339623,21.509434 Z M92.0754717,24.1509434 L100,24.1509434 L100,29.8113208 L92.0754717,29.8113208 L92.0754717,24.1509434 Z M97.3584906,21.509434 L100,21.509434 L100,24.1509434 L97.3584906,24.1509434 L97.3584906,21.509434 Z M86.4150943,26.7924528 L89.4339623,26.7924528 L89.4339623,32.4528302 L86.4150943,32.4528302 L86.4150943,26.7924528 Z M94.7169811,29.8113208 L97.3584906,29.8113208 L97.3584906,37.7358491 L94.7169811,37.7358491 L94.7169811,29.8113208 Z M97.3584906,32.4528302 L100,32.4528302 L100,40.3773585 L97.3584906,40.3773585 L97.3584906,32.4528302 Z M0,37.7358491 L2.64150943,37.7358491 L2.64150943,48.6792453 L0,48.6792453 L0,37.7358491 Z M2.64150943,46.0377358 L5.28301887,46.0377358 L5.28301887,53.9622642 L2.64150943,53.9622642 L2.64150943,46.0377358 Z M5.28301887,51.3207547 L7.9245283,51.3207547 L7.9245283,53.9622642 L5.28301887,53.9622642 L5.28301887,51.3207547 Z M7.9245283,43.3962264 L10.5660377,43.3962264 L10.5660377,46.0377358 L7.9245283,46.0377358 L7.9245283,43.3962264 Z M10.5660377,40.3773585 L16.2264151,40.3773585 L16.2264151,43.3962264 L10.5660377,43.3962264 L10.5660377,40.3773585 Z M16.2264151,43.3962264 L18.8679245,43.3962264 L18.8679245,46.0377358 L16.2264151,46.0377358 L16.2264151,43.3962264 Z M18.8679245,46.0377358 L21.509434,46.0377358 L21.509434,48.6792453 L18.8679245,48.6792453 L18.8679245,46.0377358 Z M10.5660377,48.6792453 L13.5849057,48.6792453 L13.5849057,51.3207547 L10.5660377,51.3207547 L10.5660377,48.6792453 Z M16.2264151,48.6792453 L26.7924528,48.6792453 L26.7924528,51.3207547 L16.2264151,51.3207547 L16.2264151,48.6792453 Z M18.8679245,51.3207547 L24.1509434,51.3207547 L24.1509434,53.9622642 L18.8679245,53.9622642 L18.8679245,51.3207547 Z M10.5660377,53.9622642 L21.509434,53.9622642 L21.509434,56.6037736 L10.5660377,56.6037736 L10.5660377,53.9622642 Z M7.9245283,56.6037736 L16.2264151,56.6037736 L16.2264151,62.2641509 L7.9245283,62.2641509 L7.9245283,56.6037736 Z M18.8679245,56.6037736 L24.1509434,56.6037736 L24.1509434,64.9056604 L18.8679245,64.9056604 L18.8679245,56.6037736 Z M16.2264151,59.6226415 L18.8679245,59.6226415 L18.8679245,62.2641509 L16.2264151,62.2641509 L16.2264151,59.6226415 Z M16.2264151,64.9056604 L21.509434,64.9056604 L21.509434,67.5471698 L16.2264151,67.5471698 L16.2264151,64.9056604 Z M18.8679245,67.5471698 L26.7924528,67.5471698 L26.7924528,70.1886792 L18.8679245,70.1886792 L18.8679245,67.5471698 Z M16.2264151,70.1886792 L21.509434,70.1886792 L21.509434,73.2075472 L16.2264151,73.2075472 L16.2264151,70.1886792 Z M13.5849057,73.2075472 L16.2264151,73.2075472 L16.2264151,75.8490566 L13.5849057,75.8490566 L13.5849057,73.2075472 Z M16.2264151,75.8490566 L18.8679245,75.8490566 L18.8679245,78.490566 L16.2264151,78.490566 L16.2264151,75.8490566 Z M0,53.9622642 L2.64150943,53.9622642 L2.64150943,62.2641509 L0,62.2641509 L0,53.9622642 Z M2.64150943,56.6037736 L5.28301887,56.6037736 L5.28301887,64.9056604 L2.64150943,64.9056604 L2.64150943,56.6037736 Z M5.28301887,62.2641509 L7.9245283,62.2641509 L7.9245283,64.9056604 L5.28301887,64.9056604 L5.28301887,62.2641509 Z M10.5660377,62.2641509 L16.2264151,62.2641509 L16.2264151,64.9056604 L10.5660377,64.9056604 L10.5660377,62.2641509 Z M7.9245283,64.9056604 L13.5849057,64.9056604 L13.5849057,67.5471698 L7.9245283,67.5471698 L7.9245283,64.9056604 Z M2.64150943,67.5471698 L10.5660377,67.5471698 L10.5660377,70.1886792 L2.64150943,70.1886792 L2.64150943,67.5471698 Z M0,64.9056604 L2.64150943,64.9056604 L2.64150943,67.5471698 L0,67.5471698 L0,64.9056604 Z M0,70.1886792 L2.64150943,70.1886792 L2.64150943,73.2075472 L0,73.2075472 L0,70.1886792 Z M0,75.8490566 L2.64150943,75.8490566 L2.64150943,78.490566 L0,78.490566 L0,75.8490566 Z M2.64150943,73.2075472 L7.9245283,73.2075472 L7.9245283,75.8490566 L2.64150943,75.8490566 L2.64150943,73.2075472 Z M7.9245283,75.8490566 L13.5849057,75.8490566 L13.5849057,78.490566 L7.9245283,78.490566 L7.9245283,75.8490566 Z M13.5849057,51.3207547 L16.2264151,51.3207547 L16.2264151,53.9622642 L13.5849057,53.9622642 L13.5849057,51.3207547 Z M24.1509434,40.3773585 L29.8113208,40.3773585 L29.8113208,46.0377358 L24.1509434,46.0377358 L24.1509434,40.3773585 Z M29.8113208,37.7358491 L40.3773585,37.7358491 L40.3773585,40.3773585 L29.8113208,40.3773585 L29.8113208,37.7358491 Z M35.0943396,35.0943396 L37.7358491,35.0943396 L37.7358491,37.7358491 L35.0943396,37.7358491 L35.0943396,35.0943396 Z M29.8113208,43.3962264 L40.3773585,43.3962264 L40.3773585,46.0377358 L29.8113208,46.0377358 L29.8113208,43.3962264 Z M35.0943396,46.0377358 L37.7358491,46.0377358 L37.7358491,51.3207547 L35.0943396,51.3207547 L35.0943396,46.0377358 Z M32.4528302,48.6792453 L35.0943396,48.6792453 L35.0943396,51.3207547 L32.4528302,51.3207547 L32.4528302,48.6792453 Z M26.7924528,51.3207547 L32.4528302,51.3207547 L32.4528302,53.9622642 L26.7924528,53.9622642 L26.7924528,51.3207547 Z M29.8113208,53.9622642 L35.0943396,53.9622642 L35.0943396,56.6037736 L29.8113208,56.6037736 L29.8113208,53.9622642 Z M43.3962264,46.0377358 L46.0377358,46.0377358 L46.0377358,48.6792453 L43.3962264,48.6792453 L43.3962264,46.0377358 Z M46.0377358,40.3773585 L48.6792453,40.3773585 L48.6792453,46.0377358 L46.0377358,46.0377358 L46.0377358,40.3773585 Z M48.6792453,37.7358491 L48.6792453,40.3773585 L51.3207547,40.3773585 L51.3207547,37.7358491 L48.6792453,37.7358491 Z M53.9622642,37.7358491 L53.9622642,40.3773585 L56.6037736,40.3773585 L56.6037736,37.7358491 L53.9622642,37.7358491 Z M51.3207547,40.3773585 L59.6226415,40.3773585 L59.6226415,43.3962264 L51.3207547,43.3962264 L51.3207547,40.3773585 Z M53.9622642,43.3962264 L56.6037736,43.3962264 L56.6037736,48.6792453 L53.9622642,48.6792453 L53.9622642,43.3962264 Z M56.6037736,46.0377358 L64.9056604,46.0377358 L64.9056604,48.6792453 L56.6037736,48.6792453 L56.6037736,46.0377358 Z M62.2641509,48.6792453 L67.5471698,48.6792453 L67.5471698,51.3207547 L62.2641509,51.3207547 L62.2641509,48.6792453 Z M64.9056604,43.3962264 L64.9056604,46.0377358 L67.5471698,46.0377358 L67.5471698,43.3962264 L64.9056604,43.3962264 Z M48.6792453,64.9056604 L51.3207547,64.9056604 L51.3207547,73.2075472 L48.6792453,73.2075472 L48.6792453,64.9056604 Z M51.3207547,67.5471698 L56.6037736,67.5471698 L56.6037736,73.2075472 L51.3207547,73.2075472 L51.3207547,67.5471698 Z M48.6792453,53.9622642 L53.9622642,53.9622642 L53.9622642,56.6037736 L48.6792453,56.6037736 L48.6792453,53.9622642 Z M51.3207547,48.6792453 L53.9622642,48.6792453 L53.9622642,53.9622642 L51.3207547,53.9622642 L51.3207547,48.6792453 Z M53.9622642,51.3207547 L59.6226415,51.3207547 L59.6226415,53.9622642 L53.9622642,53.9622642 L53.9622642,51.3207547 Z M46.0377358,48.6792453 L48.6792453,48.6792453 L48.6792453,51.3207547 L46.0377358,51.3207547 L46.0377358,48.6792453 Z M43.3962264,51.3207547 L46.0377358,51.3207547 L46.0377358,56.6037736 L43.3962264,56.6037736 L43.3962264,51.3207547 Z M78.490566,37.7358491 L81.1320755,37.7358491 L81.1320755,53.9622642 L78.490566,53.9622642 L78.490566,37.7358491 Z M75.8490566,43.3962264 L78.490566,43.3962264 L78.490566,53.9622642 L75.8490566,53.9622642 L75.8490566,43.3962264 Z M81.1320755,40.3773585 L83.7735849,40.3773585 L83.7735849,48.6792453 L81.1320755,48.6792453 L81.1320755,40.3773585 Z M53.9622642,56.6037736 L59.6226415,56.6037736 L59.6226415,59.6226415 L53.9622642,59.6226415 L53.9622642,56.6037736 Z M51.3207547,59.6226415 L53.9622642,59.6226415 L53.9622642,64.9056604 L51.3207547,64.9056604 L51.3207547,59.6226415 Z M53.9622642,59.6226415 L56.6037736,59.6226415 L56.6037736,62.2641509 L53.9622642,62.2641509 L53.9622642,59.6226415 Z M56.6037736,62.2641509 L59.6226415,62.2641509 L59.6226415,67.5471698 L56.6037736,67.5471698 L56.6037736,62.2641509 Z M59.6226415,64.9056604 L62.2641509,64.9056604 L62.2641509,73.2075472 L59.6226415,73.2075472 L59.6226415,64.9056604 Z M62.2641509,67.5471698 L67.5471698,67.5471698 L67.5471698,73.2075472 L62.2641509,73.2075472 L62.2641509,67.5471698 Z M62.2641509,53.9622642 L64.9056604,53.9622642 L64.9056604,59.6226415 L62.2641509,59.6226415 L62.2641509,53.9622642 Z M64.9056604,53.9622642 L70.1886792,53.9622642 L70.1886792,56.6037736 L64.9056604,56.6037736 L64.9056604,53.9622642 Z M67.5471698,51.3207547 L73.2075472,51.3207547 L73.2075472,53.9622642 L67.5471698,53.9622642 L67.5471698,51.3207547 Z M35.0943396,59.6226415 L40.3773585,59.6226415 L40.3773585,62.2641509 L35.0943396,62.2641509 L35.0943396,59.6226415 Z M29.8113208,67.5471698 L32.4528302,67.5471698 L32.4528302,70.1886792 L29.8113208,70.1886792 L29.8113208,67.5471698 Z M35.0943396,67.5471698 L37.7358491,67.5471698 L37.7358491,70.1886792 L35.0943396,70.1886792 L35.0943396,67.5471698 Z M24.1509434,73.2075472 L26.7924528,73.2075472 L26.7924528,75.8490566 L24.1509434,75.8490566 L24.1509434,73.2075472 Z M29.8113208,73.2075472 L32.4528302,73.2075472 L32.4528302,78.490566 L29.8113208,78.490566 L29.8113208,73.2075472 Z M21.509434,75.8490566 L29.8113208,75.8490566 L29.8113208,78.490566 L21.509434,78.490566 L21.509434,75.8490566 Z M21.509434,78.490566 L24.1509434,78.490566 L24.1509434,81.1320755 L21.509434,81.1320755 L21.509434,78.490566 Z M26.7924528,78.490566 L29.8113208,78.490566 L29.8113208,83.7735849 L26.7924528,83.7735849 L26.7924528,78.490566 Z M21.509434,83.7735849 L26.7924528,83.7735849 L26.7924528,89.4339623 L21.509434,89.4339623 L21.509434,83.7735849 Z M24.1509434,89.4339623 L29.8113208,89.4339623 L29.8113208,92.0754717 L24.1509434,92.0754717 L24.1509434,89.4339623 Z M21.509434,92.0754717 L35.0943396,92.0754717 L35.0943396,94.7169811 L21.509434,94.7169811 L21.509434,92.0754717 Z M29.4339623,94.7169811 L37.7358491,94.7169811 L37.7358491,97.3584906 L29.4339623,97.3584906 L29.4339623,94.7169811 Z M32.4528302,97.3584906 L40.3773585,97.3584906 L40.3773585,100 L32.4528302,100 L32.4528302,97.3584906 Z M26.7924528,97.3584906 L29.8113208,97.3584906 L29.8113208,100 L26.7924528,100 L26.7924528,97.3584906 Z M32.4528302,89.4339623 L37.7358491,89.4339623 L37.7358491,92.0754717 L32.4528302,92.0754717 L32.4528302,89.4339623 Z M32.4528302,78.490566 L35.0943396,78.490566 L35.0943396,86.4150943 L32.4528302,86.4150943 L32.4528302,78.490566 Z M37.7358491,73.2075472 L43.3962264,73.2075472 L43.3962264,75.8490566 L37.7358491,75.8490566 L37.7358491,73.2075472 Z M89.4339623,32.4528302 L92.0754717,32.4528302 L92.0754717,37.7358491 L89.4339623,37.7358491 L89.4339623,32.4528302 Z M92.0754717,35.0943396 L94.7169811,35.0943396 L94.7169811,40.3773585 L92.0754717,40.3773585 L92.0754717,35.0943396 Z M86.4150943,40.3773585 L89.4339623,40.3773585 L89.4339623,43.3962264 L86.4150943,43.3962264 L86.4150943,40.3773585 Z M89.4339623,43.3962264 L92.0754717,43.3962264 L92.0754717,46.0377358 L89.4339623,46.0377358 L89.4339623,43.3962264 Z M92.0754717,46.0377358 L94.7169811,46.0377358 L94.7169811,48.6792453 L92.0754717,48.6792453 L92.0754717,46.0377358 Z M94.7169811,40.3773585 L97.3584906,40.3773585 L97.3584906,51.3207547 L94.7169811,51.3207547 L94.7169811,40.3773585 Z M97.3584906,46.0377358 L100,46.0377358 L100,51.3207547 L97.3584906,51.3207547 L97.3584906,46.0377358 Z M97.3584906,67.5471698 L100,67.5471698 L100,75.8490566 L97.3584906,75.8490566 L97.3584906,67.5471698 Z M94.7169811,75.8490566 L97.3584906,75.8490566 L97.3584906,92.0754717 L94.7169811,92.0754717 L94.7169811,75.8490566 Z M75.8490566,75.8490566 L86.4150943,75.8490566 L86.4150943,78.490566 L75.8490566,78.490566 L75.8490566,75.8490566 Z M83.7735849,70.1886792 L89.4339623,70.1886792 L89.4339623,73.2075472 L83.7735849,73.2075472 L83.7735849,70.1886792 Z M35.0943396,75.8490566 L40.3773585,75.8490566 L40.3773585,78.490566 L35.0943396,78.490566 L35.0943396,75.8490566 Z M43.3962264,70.1886792 L46.0377358,70.1886792 L46.0377358,73.2075472 L43.3962264,73.2075472 L43.3962264,70.1886792 Z M43.3962264,75.8490566 L46.0377358,75.8490566 L46.0377358,81.1320755 L43.3962264,81.1320755 L43.3962264,75.8490566 Z M70.1886792,48.6792453 L73.2075472,48.6792453 L73.2075472,51.3207547 L70.1886792,51.3207547 L70.1886792,48.6792453 Z M92.0754717,70.1886792 L94.7169811,70.1886792 L94.7169811,73.2075472 L92.0754717,73.2075472 L92.0754717,70.1886792 Z M89.4339623,64.9056604 L92.0754717,64.9056604 L92.0754717,67.5471698 L89.4339623,67.5471698 L89.4339623,64.9056604 Z M78.490566,73.2075472 L83.7735849,73.2075472 L83.7735849,75.8490566 L78.490566,75.8490566 L78.490566,73.2075472 Z M64.9056604,73.2075472 L75.8490566,73.2075472 L75.8490566,75.8490566 L64.9056604,75.8490566 L64.9056604,73.2075472 Z M73.2075472,78.490566 L78.490566,78.490566 L78.490566,83.7735849 L73.2075472,83.7735849 L73.2075472,78.490566 Z M75.8490566,83.7735849 L78.490566,83.7735849 L78.490566,92.0754717 L75.8490566,92.0754717 L75.8490566,83.7735849 Z M78.490566,86.4150943 L81.1320755,86.4150943 L81.1320755,92.0754717 L78.490566,92.0754717 L78.490566,86.4150943 Z M81.1320755,86.4150943 L86.4150943,86.4150943 L86.4150943,89.4339623 L81.1320755,89.4339623 L81.1320755,86.4150943 Z M83.7735849,89.4339623 L86.4150943,89.4339623 L86.4150943,94.7169811 L83.7735849,94.7169811 L83.7735849,89.4339623 Z M81.1320755,81.1320755 L83.7735849,81.1320755 L83.7735849,83.7735849 L81.1320755,83.7735849 L81.1320755,81.1320755 Z M92.0754717,81.1320755 L94.7169811,81.1320755 L94.7169811,83.7735849 L92.0754717,83.7735849 L92.0754717,81.1320755 Z M97.3584906,78.490566 L100,78.490566 L100,83.7735849 L97.3584906,83.7735849 L97.3584906,78.490566 Z M97.3584906,89.4339623 L100,89.4339623 L100,94.7169811 L97.3584906,94.7169811 L97.3584906,89.4339623 Z M89.4339623,92.0754717 L92.0754717,92.0754717 L92.0754717,94.7169811 L89.4339623,94.7169811 L89.4339623,92.0754717 Z M83.7735849,97.3584906 L92.0754717,97.3584906 L92.0754717,100 L83.7735849,100 L83.7735849,97.3584906 Z M67.5471698,83.7735849 L73.2075472,83.7735849 L73.2075472,89.4339623 L67.5471698,89.4339623 L67.5471698,83.7735849 Z M67.5471698,89.4339623 L70.1886792,89.4339623 L70.1886792,92.0754717 L67.5471698,92.0754717 L67.5471698,89.4339623 Z M70.1886792,92.0754717 L75.8490566,92.0754717 L75.8490566,94.7169811 L70.1886792,94.7169811 L70.1886792,92.0754717 Z M73.2075472,94.7169811 L81.1320755,94.7169811 L81.1320755,97.3584906 L73.2075472,97.3584906 L73.2075472,94.7169811 Z M75.8490566,97.3584906 L78.490566,97.3584906 L78.490566,100 L75.8490566,100 L75.8490566,97.3584906 Z M51.3207547,75.8490566 L70.1886792,75.8490566 L70.1886792,78.490566 L51.3207547,78.490566 L51.3207547,75.8490566 Z M70.1886792,70.1886792 L73.2075472,70.1886792 L73.2075472,73.2075472 L70.1886792,73.2075472 L70.1886792,70.1886792 Z M83.7735849,51.3207547 L89.4339623,51.3207547 L89.4339623,53.9622642 L83.7735849,53.9622642 L83.7735849,51.3207547 Z M92.0754717,56.6037736 L94.7169811,56.6037736 L94.7169811,59.6226415 L92.0754717,59.6226415 L92.0754717,56.6037736 Z M86.4150943,59.6226415 L92.0754717,59.6226415 L92.0754717,62.2641509 L86.4150943,62.2641509 L86.4150943,59.6226415 Z M81.1320755,62.2641509 L83.7735849,62.2641509 L83.7735849,64.9056604 L81.1320755,64.9056604 L81.1320755,62.2641509 Z M75.8490566,62.2641509 L78.490566,62.2641509 L78.490566,64.9056604 L75.8490566,64.9056604 L75.8490566,62.2641509 Z M94.7169811,94.7169811 L97.3584906,94.7169811 L97.3584906,100 L94.7169811,100 L94.7169811,94.7169811 Z M64.9056604,59.6226415 L67.5471698,59.6226415 L67.5471698,67.5471698 L64.9056604,67.5471698 L64.9056604,59.6226415 Z M62.2641509,62.2641509 L64.9056604,62.2641509 L64.9056604,64.9056604 L62.2641509,64.9056604 L62.2641509,62.2641509 Z M67.5471698,59.6226415 L70.1886792,59.6226415 L70.1886792,62.2641509 L67.5471698,62.2641509 L67.5471698,59.6226415 Z M70.1886792,56.6037736 L73.2075472,56.6037736 L73.2075472,59.6226415 L70.1886792,59.6226415 L70.1886792,56.6037736 Z M73.2075472,64.9056604 L75.8490566,64.9056604 L75.8490566,70.1886792 L73.2075472,70.1886792 L73.2075472,64.9056604 Z M97.3584906,97.3584906 L100,97.3584906 L100,100 L97.3584906,100 L97.3584906,97.3584906 Z M67.5471698,67.5471698 L70.1886792,67.5471698 L70.1886792,70.1886792 L67.5471698,70.1886792 L67.5471698,67.5471698 Z M56.6037736,73.2075472 L59.6226415,73.2075472 L59.6226415,75.8490566 L56.6037736,75.8490566 L56.6037736,73.2075472 Z M48.6792453,78.490566 L53.9622642,78.490566 L53.9622642,81.1320755 L48.6792453,81.1320755 L48.6792453,78.490566 Z M48.6792453,81.1320755 L59.6226415,81.1320755 L59.6226415,83.7735849 L48.6792453,83.7735849 L48.6792453,81.1320755 Z M56.6037736,78.490566 L62.2641509,78.490566 L62.2641509,81.1320755 L56.6037736,81.1320755 L56.6037736,78.490566 Z M64.9056604,81.1320755 L67.5471698,81.1320755 L67.5471698,83.7735849 L64.9056604,83.7735849 L64.9056604,81.1320755 Z M62.2641509,83.7735849 L64.9056604,83.7735849 L64.9056604,86.4150943 L62.2641509,86.4150943 L62.2641509,83.7735849 Z M62.2641509,94.7169811 L64.9056604,94.7169811 L64.9056604,97.3584906 L62.2641509,97.3584906 L62.2641509,94.7169811 Z M67.5471698,94.7169811 L70.1886792,94.7169811 L70.1886792,100 L67.5471698,100 L67.5471698,94.7169811 Z M62.2641509,89.4339623 L64.9056604,89.4339623 L64.9056604,92.0754717 L62.2641509,92.0754717 L62.2641509,89.4339623 Z M59.6226415,97.3584906 L62.2641509,97.3584906 L62.2641509,100 L59.6226415,100 L59.6226415,97.3584906 Z M53.9622642,94.7169811 L56.6037736,94.7169811 L56.6037736,97.3584906 L53.9622642,97.3584906 L53.9622642,94.7169811 Z M43.3962264,94.7169811 L46.0377358,94.7169811 L46.0377358,100 L43.3962264,100 L43.3962264,94.7169811 Z" id="Combined-Shape" fill="#000000"></path>
                        <rect id="Rectangle-268" stroke="#000000" stroke-width="1.6" x="0.8" y="0.8" width="17.2333337" height="17.2333337"></rect>
                        <rect id="Rectangle-268" stroke="#000000" stroke-width="1.6" x="0.8" y="81.9665853" width="17.2333337" height="17.2333337"></rect>
                        <rect id="Rectangle-268" stroke="#000000" stroke-width="1.6" x="81.966687" y="0.8" width="17.2333337" height="17.2333337"></rect>
                    </g>
                </g>
            </g>
        </g>
    </g>
</svg>