<?xml version="1.0" encoding="UTF-8"?>
<svg width="16px" height="16px" viewBox="0 0 16 16" version="1.1" xmlns="http://www.w3.org/2000/svg" xmlns:xlink="http://www.w3.org/1999/xlink">
    <!-- Generator: Sketch 45.2 (43514) - http://www.bohemiancoding.com/sketch -->
    <title>Group 24</title>
    <desc>Created with Sketch.</desc>
    <defs></defs>
    <g id="Page-1" stroke="none" stroke-width="1" fill="none" fill-rule="evenodd">
        <g id="购物车" transform="translate(-1108.000000, -1531.000000)">
            <g id="Group-24" transform="translate(1108.000000, 1531.000000)">
                <circle id="Oval-7" fill="#FFB63B" cx="8" cy="8" r="8"></circle>
                <path d="M7.97337181,11.7899352 L9.18034587,7.28544664 C9.3012416,6.83425766 9.03384053,6.36184897 8.58039434,6.24034843 C8.3863775,6.18836177 8.19113199,6.20753086 8.02136406,6.28173135 C7.93419094,6.2896508 7.84955105,6.32588797 7.78376199,6.39167703 L6.21709282,7.9583462 C6.0661127,8.10932632 6.06637103,8.36227558 6.22254473,8.51844928 C6.37415102,8.67005557 6.62948512,8.67706388 6.78264781,8.52390118 L7.2004954,8.10605359 L6.11694569,12.1499162 C5.99604996,12.6011051 6.26345103,13.0735138 6.71689722,13.1950144 C6.96721203,13.262086 7.219572,13.2107161 7.41662439,13.0755323 C7.56621529,13.1542573 7.76034253,13.1340744 7.88702953,13.0073874 L9.23280322,11.6616137 C9.38924335,11.5051736 9.38790673,11.2533026 9.23173304,11.0971289 C9.08012674,10.9455226 8.82283088,10.9404761 8.66724823,11.0960588 L7.97337181,11.7899352 Z M9.09952104,5.4 C8.60246476,5.4 8.19952104,4.99705627 8.19952104,4.5 C8.19952104,4.00294373 8.60246476,3.6 9.09952104,3.6 C9.59657731,3.6 9.99952104,4.00294373 9.99952104,4.5 C9.99952104,4.99705627 9.59657731,5.4 9.09952104,5.4 Z" id="Combined-Shape" fill="#FFFFFF"></path>
            </g>
        </g>
    </g>
</svg>